M48
; DRILL file {KiCad (7.0.0)} date Mon Mar 13 12:39:34 2023
; FORMAT={-:-/ absolute / metric / decimal}
; #@! TF.CreationDate,2023-03-13T12:39:34-05:00
; #@! TF.GenerationSoftware,Kicad,Pcbnew,(7.0.0)
; #@! TF.FileFunction,NonPlated,1,2,NPTH
FMAT,2
METRIC
; #@! TA.AperFunction,NonPlated,NPTH,ComponentDrill
T1C0.400
; #@! TA.AperFunction,NonPlated,NPTH,ComponentDrill
T2C6.350
%
G90
G05
T1
X97.4Y-97.443
X97.4Y-98.829
X97.4Y-100.214
X97.4Y-101.6
X97.4Y-102.986
X97.4Y-104.371
X97.4Y-105.757
X97.8Y-95.365
X97.8Y-96.75
X97.8Y-98.136
X97.8Y-99.522
X97.8Y-100.907
X97.8Y-102.293
X97.8Y-103.678
X97.8Y-105.064
X97.8Y-106.45
X97.8Y-107.835
X98.2Y-94.672
X98.2Y-96.058
X98.2Y-97.443
X98.2Y-98.829
X98.2Y-100.214
X98.2Y-101.6
X98.2Y-102.986
X98.2Y-104.371
X98.2Y-105.757
X98.2Y-107.142
X98.2Y-108.528
X98.2Y-109.914
X98.6Y-92.594
X98.6Y-93.979
X98.6Y-95.365
X98.6Y-96.75
X98.6Y-98.136
X98.6Y-99.522
X98.6Y-100.907
X98.6Y-102.293
X98.6Y-103.678
X98.6Y-105.064
X98.6Y-106.45
X98.6Y-107.835
X98.6Y-109.221
X98.6Y-110.606
X99.0Y-91.901
X99.0Y-93.286
X99.0Y-94.672
X99.0Y-96.058
X99.0Y-97.443
X99.0Y-98.829
X99.0Y-100.214
X99.0Y-101.6
X99.0Y-102.986
X99.0Y-104.371
X99.0Y-105.757
X99.0Y-107.142
X99.0Y-108.528
X99.0Y-109.914
X99.0Y-111.299
X99.4Y-91.208
X99.4Y-92.594
X99.4Y-93.979
X99.4Y-95.365
X99.4Y-96.75
X99.4Y-98.136
X99.4Y-99.522
X99.4Y-100.907
X99.4Y-102.293
X99.4Y-103.678
X99.4Y-105.064
X99.4Y-106.45
X99.4Y-107.835
X99.4Y-109.221
X99.4Y-110.606
X99.4Y-111.992
X99.8Y-90.515
X99.8Y-91.901
X99.8Y-93.286
X99.8Y-94.672
X99.8Y-96.058
X99.8Y-97.443
X99.8Y-98.829
X99.8Y-100.214
X99.8Y-101.6
X99.8Y-102.986
X99.8Y-104.371
X99.8Y-105.757
X99.8Y-107.142
X99.8Y-108.528
X99.8Y-109.914
X99.8Y-111.299
X99.8Y-112.685
X99.8Y-114.07
X100.2Y-88.437
X100.2Y-89.822
X100.2Y-91.208
X100.2Y-92.594
X100.2Y-93.979
X100.2Y-95.365
X100.2Y-96.75
X100.2Y-98.136
X100.2Y-99.522
X100.2Y-100.907
X100.2Y-102.293
X100.2Y-103.678
X100.2Y-105.064
X100.2Y-106.45
X100.2Y-107.835
X100.2Y-109.221
X100.2Y-110.606
X100.2Y-111.992
X100.2Y-113.378
X100.2Y-114.763
X100.6Y-87.744
X100.6Y-89.13
X100.6Y-90.515
X100.6Y-91.901
X100.6Y-93.286
X100.6Y-94.672
X100.6Y-96.058
X100.6Y-97.443
X100.6Y-98.829
X100.6Y-100.214
X100.6Y-101.6
X100.6Y-102.986
X100.6Y-104.371
X100.6Y-105.757
X100.6Y-107.142
X100.6Y-108.528
X100.6Y-109.914
X100.6Y-111.299
X100.6Y-112.685
X100.6Y-114.07
X100.6Y-115.456
X101.0Y-87.051
X101.0Y-88.437
X101.0Y-89.822
X101.0Y-91.208
X101.0Y-92.594
X101.0Y-93.979
X101.0Y-95.365
X101.0Y-96.75
X101.0Y-98.136
X101.0Y-99.522
X101.0Y-100.907
X101.0Y-102.293
X101.0Y-103.678
X101.0Y-105.064
X101.0Y-106.45
X101.0Y-107.835
X101.0Y-109.221
X101.0Y-110.606
X101.0Y-111.992
X101.0Y-113.378
X101.0Y-114.763
X101.0Y-116.149
X101.4Y-86.358
X101.4Y-87.744
X101.4Y-89.13
X101.4Y-90.515
X101.4Y-91.901
X101.4Y-93.286
X101.4Y-94.672
X101.4Y-96.058
X101.4Y-97.443
X101.4Y-98.829
X101.4Y-100.214
X101.4Y-101.6
X101.4Y-102.986
X101.4Y-104.371
X101.4Y-105.757
X101.4Y-107.142
X101.4Y-108.528
X101.4Y-109.914
X101.4Y-111.299
X101.4Y-112.685
X101.4Y-114.07
X101.4Y-115.456
X101.4Y-116.842
X101.8Y-85.666
X101.8Y-87.051
X101.8Y-88.437
X101.8Y-89.822
X101.8Y-91.208
X101.8Y-92.594
X101.8Y-93.979
X101.8Y-95.365
X101.8Y-96.75
X101.8Y-98.136
X101.8Y-99.522
X101.8Y-100.907
X101.8Y-102.293
X101.8Y-103.678
X101.8Y-105.064
X101.8Y-106.45
X101.8Y-107.835
X101.8Y-109.221
X101.8Y-110.606
X101.8Y-111.992
X101.8Y-113.378
X101.8Y-114.763
X101.8Y-116.149
X101.8Y-117.534
X102.2Y-84.973
X102.2Y-86.358
X102.2Y-87.744
X102.2Y-89.13
X102.2Y-90.515
X102.2Y-91.901
X102.2Y-93.286
X102.2Y-94.672
X102.2Y-96.058
X102.2Y-97.443
X102.2Y-98.829
X102.2Y-100.214
X102.2Y-101.6
X102.2Y-102.986
X102.2Y-104.371
X102.2Y-105.757
X102.2Y-107.142
X102.2Y-108.528
X102.2Y-109.914
X102.2Y-111.299
X102.2Y-112.685
X102.2Y-114.07
X102.2Y-115.456
X102.2Y-116.842
X102.2Y-118.227
X102.6Y-85.666
X102.6Y-87.051
X102.6Y-88.437
X102.6Y-89.822
X102.6Y-91.208
X102.6Y-92.594
X102.6Y-93.979
X102.6Y-95.365
X102.6Y-96.75
X102.6Y-98.136
X102.6Y-99.522
X102.6Y-100.907
X102.6Y-102.293
X102.6Y-103.678
X102.6Y-105.064
X102.6Y-106.45
X102.6Y-107.835
X102.6Y-109.221
X102.6Y-110.606
X102.6Y-111.992
X102.6Y-113.378
X102.6Y-114.763
X102.6Y-116.149
X102.6Y-117.534
X103.0Y-84.973
X103.0Y-86.358
X103.0Y-87.744
X103.0Y-89.13
X103.0Y-90.515
X103.0Y-91.901
X103.0Y-93.286
X103.0Y-94.672
X103.0Y-96.058
X103.0Y-97.443
X103.0Y-98.829
X103.0Y-100.214
X103.0Y-101.6
X103.0Y-102.986
X103.0Y-104.371
X103.0Y-105.757
X103.0Y-107.142
X103.0Y-108.528
X103.0Y-109.914
X103.0Y-111.299
X103.0Y-112.685
X103.0Y-114.07
X103.0Y-115.456
X103.0Y-116.842
X103.0Y-118.227
X103.4Y-84.28
X103.4Y-85.666
X103.4Y-87.051
X103.4Y-88.437
X103.4Y-89.822
X103.4Y-91.208
X103.4Y-92.594
X103.4Y-93.979
X103.4Y-95.365
X103.4Y-96.75
X103.4Y-98.136
X103.4Y-99.522
X103.4Y-100.907
X103.4Y-102.293
X103.4Y-103.678
X103.4Y-105.064
X103.4Y-106.45
X103.4Y-107.835
X103.4Y-109.221
X103.4Y-110.606
X103.4Y-111.992
X103.4Y-113.378
X103.4Y-114.763
X103.4Y-116.149
X103.4Y-117.534
X103.4Y-118.92
X103.8Y-83.587
X103.8Y-84.973
X103.8Y-86.358
X103.8Y-87.744
X103.8Y-89.13
X103.8Y-90.515
X103.8Y-91.901
X103.8Y-93.286
X103.8Y-94.672
X103.8Y-96.058
X103.8Y-97.443
X103.8Y-98.829
X103.8Y-100.214
X103.8Y-101.6
X103.8Y-102.986
X103.8Y-104.371
X103.8Y-105.757
X103.8Y-107.142
X103.8Y-108.528
X103.8Y-109.914
X103.8Y-111.299
X103.8Y-112.685
X103.8Y-114.07
X103.8Y-115.456
X103.8Y-116.842
X103.8Y-118.227
X103.8Y-119.613
X104.2Y-82.894
X104.2Y-84.28
X104.2Y-85.666
X104.2Y-87.051
X104.2Y-88.437
X104.2Y-89.822
X104.2Y-91.208
X104.2Y-92.594
X104.2Y-93.979
X104.2Y-95.365
X104.2Y-96.75
X104.2Y-98.136
X104.2Y-99.522
X104.2Y-100.907
X104.2Y-102.293
X104.2Y-103.678
X104.2Y-105.064
X104.2Y-106.45
X104.2Y-107.835
X104.2Y-109.221
X104.2Y-110.606
X104.2Y-111.992
X104.2Y-113.378
X104.2Y-114.763
X104.2Y-116.149
X104.2Y-117.534
X104.2Y-118.92
X104.2Y-120.306
X104.6Y-82.202
X104.6Y-83.587
X104.6Y-84.973
X104.6Y-86.358
X104.6Y-87.744
X104.6Y-89.13
X104.6Y-90.515
X104.6Y-91.901
X104.6Y-93.286
X104.6Y-94.672
X104.6Y-96.058
X104.6Y-97.443
X104.6Y-98.829
X104.6Y-100.214
X104.6Y-101.6
X104.6Y-102.986
X104.6Y-104.371
X104.6Y-105.757
X104.6Y-107.142
X104.6Y-108.528
X104.6Y-109.914
X104.6Y-111.299
X104.6Y-112.685
X104.6Y-114.07
X104.6Y-115.456
X104.6Y-116.842
X104.6Y-118.227
X104.6Y-119.613
X104.6Y-120.998
X105.0Y-81.509
X105.0Y-82.894
X105.0Y-84.28
X105.0Y-85.666
X105.0Y-87.051
X105.0Y-88.437
X105.0Y-89.822
X105.0Y-91.208
X105.0Y-92.594
X105.0Y-93.979
X105.0Y-95.365
X105.0Y-96.75
X105.0Y-98.136
X105.0Y-99.522
X105.0Y-100.907
X105.0Y-102.293
X105.0Y-103.678
X105.0Y-105.064
X105.0Y-106.45
X105.0Y-107.835
X105.0Y-109.221
X105.0Y-110.606
X105.0Y-111.992
X105.0Y-113.378
X105.0Y-114.763
X105.0Y-116.149
X105.0Y-117.534
X105.0Y-118.92
X105.0Y-120.306
X105.0Y-121.691
X105.4Y-82.202
X105.4Y-83.587
X105.4Y-84.973
X105.4Y-86.358
X105.4Y-87.744
X105.4Y-89.13
X105.4Y-90.515
X105.4Y-91.901
X105.4Y-93.286
X105.4Y-94.672
X105.4Y-96.058
X105.4Y-97.443
X105.4Y-98.829
X105.4Y-100.214
X105.4Y-101.6
X105.4Y-102.986
X105.4Y-104.371
X105.4Y-105.757
X105.4Y-107.142
X105.4Y-108.528
X105.4Y-109.914
X105.4Y-111.299
X105.4Y-112.685
X105.4Y-114.07
X105.4Y-115.456
X105.4Y-116.842
X105.4Y-118.227
X105.4Y-119.613
X105.4Y-120.998
X105.8Y-81.509
X105.8Y-82.894
X105.8Y-84.28
X105.8Y-85.666
X105.8Y-87.051
X105.8Y-88.437
X105.8Y-89.822
X105.8Y-91.208
X105.8Y-92.594
X105.8Y-93.979
X105.8Y-95.365
X105.8Y-96.75
X105.8Y-98.136
X105.8Y-99.522
X105.8Y-100.907
X105.8Y-102.293
X105.8Y-103.678
X105.8Y-105.064
X105.8Y-106.45
X105.8Y-107.835
X105.8Y-109.221
X105.8Y-110.606
X105.8Y-111.992
X105.8Y-113.378
X105.8Y-114.763
X105.8Y-116.149
X105.8Y-117.534
X105.8Y-118.92
X105.8Y-120.306
X105.8Y-121.691
X106.2Y-80.816
X106.2Y-82.202
X106.2Y-83.587
X106.2Y-84.973
X106.2Y-86.358
X106.2Y-87.744
X106.2Y-89.13
X106.2Y-90.515
X106.2Y-91.901
X106.2Y-93.286
X106.2Y-94.672
X106.2Y-96.058
X106.2Y-97.443
X106.2Y-98.829
X106.2Y-100.214
X106.2Y-101.6
X106.2Y-102.986
X106.2Y-104.371
X106.2Y-105.757
X106.2Y-107.142
X106.2Y-108.528
X106.2Y-109.914
X106.2Y-111.299
X106.2Y-112.685
X106.2Y-114.07
X106.2Y-115.456
X106.2Y-116.842
X106.2Y-118.227
X106.2Y-119.613
X106.2Y-120.998
X106.2Y-122.384
X106.6Y-80.123
X106.6Y-81.509
X106.6Y-82.894
X106.6Y-84.28
X106.6Y-85.666
X106.6Y-87.051
X106.6Y-88.437
X106.6Y-89.822
X106.6Y-91.208
X106.6Y-92.594
X106.6Y-93.979
X106.6Y-95.365
X106.6Y-96.75
X106.6Y-98.136
X106.6Y-99.522
X106.6Y-100.907
X106.6Y-102.293
X106.6Y-103.678
X106.6Y-105.064
X106.6Y-106.45
X106.6Y-107.835
X106.6Y-109.221
X106.6Y-110.606
X106.6Y-111.992
X106.6Y-113.378
X106.6Y-114.763
X106.6Y-116.149
X106.6Y-117.534
X106.6Y-118.92
X106.6Y-120.306
X106.6Y-121.691
X106.6Y-123.077
X107.0Y-79.43
X107.0Y-80.816
X107.0Y-82.202
X107.0Y-83.587
X107.0Y-84.973
X107.0Y-86.358
X107.0Y-87.744
X107.0Y-89.13
X107.0Y-90.515
X107.0Y-91.901
X107.0Y-93.286
X107.0Y-94.672
X107.0Y-96.058
X107.0Y-97.443
X107.0Y-98.829
X107.0Y-100.214
X107.0Y-101.6
X107.0Y-102.986
X107.0Y-104.371
X107.0Y-105.757
X107.0Y-107.142
X107.0Y-108.528
X107.0Y-109.914
X107.0Y-111.299
X107.0Y-112.685
X107.0Y-114.07
X107.0Y-115.456
X107.0Y-116.842
X107.0Y-118.227
X107.0Y-119.613
X107.0Y-120.998
X107.0Y-122.384
X107.0Y-123.77
X107.4Y-80.123
X107.4Y-81.509
X107.4Y-82.894
X107.4Y-84.28
X107.4Y-85.666
X107.4Y-87.051
X107.4Y-88.437
X107.4Y-89.822
X107.4Y-91.208
X107.4Y-92.594
X107.4Y-93.979
X107.4Y-95.365
X107.4Y-96.75
X107.4Y-98.136
X107.4Y-99.522
X107.4Y-100.907
X107.4Y-102.293
X107.4Y-103.678
X107.4Y-105.064
X107.4Y-106.45
X107.4Y-107.835
X107.4Y-109.221
X107.4Y-110.606
X107.4Y-111.992
X107.4Y-113.378
X107.4Y-114.763
X107.4Y-116.149
X107.4Y-117.534
X107.4Y-118.92
X107.4Y-120.306
X107.4Y-121.691
X107.4Y-123.077
X107.8Y-79.43
X107.8Y-80.816
X107.8Y-82.202
X107.8Y-83.587
X107.8Y-84.973
X107.8Y-86.358
X107.8Y-87.744
X107.8Y-89.13
X107.8Y-90.515
X107.8Y-91.901
X107.8Y-93.286
X107.8Y-94.672
X107.8Y-96.058
X107.8Y-97.443
X107.8Y-98.829
X107.8Y-100.214
X107.8Y-101.6
X107.8Y-102.986
X107.8Y-104.371
X107.8Y-105.757
X107.8Y-107.142
X107.8Y-108.528
X107.8Y-109.914
X107.8Y-111.299
X107.8Y-112.685
X107.8Y-114.07
X107.8Y-115.456
X107.8Y-116.842
X107.8Y-118.227
X107.8Y-119.613
X107.8Y-120.998
X107.8Y-122.384
X107.8Y-123.77
X108.2Y-78.738
X108.2Y-80.123
X108.2Y-81.509
X108.2Y-82.894
X108.2Y-84.28
X108.2Y-85.666
X108.2Y-87.051
X108.2Y-88.437
X108.2Y-89.822
X108.2Y-91.208
X108.2Y-92.594
X108.2Y-93.979
X108.2Y-95.365
X108.2Y-96.75
X108.2Y-98.136
X108.2Y-99.522
X108.2Y-100.907
X108.2Y-102.293
X108.2Y-103.678
X108.2Y-105.064
X108.2Y-106.45
X108.2Y-107.835
X108.2Y-109.221
X108.2Y-110.606
X108.2Y-111.992
X108.2Y-113.378
X108.2Y-114.763
X108.2Y-116.149
X108.2Y-117.534
X108.2Y-118.92
X108.2Y-120.306
X108.2Y-121.691
X108.2Y-123.077
X108.2Y-124.462
X108.6Y-78.045
X108.6Y-79.43
X108.6Y-80.816
X108.6Y-82.202
X108.6Y-83.587
X108.6Y-84.973
X108.6Y-86.358
X108.6Y-87.744
X108.6Y-89.13
X108.6Y-90.515
X108.6Y-91.901
X108.6Y-93.286
X108.6Y-94.672
X108.6Y-96.058
X108.6Y-97.443
X108.6Y-98.829
X108.6Y-100.214
X108.6Y-101.6
X108.6Y-102.986
X108.6Y-104.371
X108.6Y-105.757
X108.6Y-107.142
X108.6Y-108.528
X108.6Y-109.914
X108.6Y-111.299
X108.6Y-112.685
X108.6Y-114.07
X108.6Y-115.456
X108.6Y-116.842
X108.6Y-118.227
X108.6Y-119.613
X108.6Y-120.998
X108.6Y-122.384
X108.6Y-123.77
X108.6Y-125.155
X109.0Y-78.738
X109.0Y-80.123
X109.0Y-81.509
X109.0Y-82.894
X109.0Y-84.28
X109.0Y-85.666
X109.0Y-87.051
X109.0Y-88.437
X109.0Y-89.822
X109.0Y-91.208
X109.0Y-92.594
X109.0Y-93.979
X109.0Y-95.365
X109.0Y-96.75
X109.0Y-98.136
X109.0Y-99.522
X109.0Y-100.907
X109.0Y-102.293
X109.0Y-103.678
X109.0Y-105.064
X109.0Y-106.45
X109.0Y-107.835
X109.0Y-109.221
X109.0Y-110.606
X109.0Y-111.992
X109.0Y-113.378
X109.0Y-114.763
X109.0Y-116.149
X109.0Y-117.534
X109.0Y-118.92
X109.0Y-120.306
X109.0Y-121.691
X109.0Y-123.077
X109.0Y-124.462
X109.4Y-78.045
X109.4Y-79.43
X109.4Y-80.816
X109.4Y-82.202
X109.4Y-83.587
X109.4Y-84.973
X109.4Y-86.358
X109.4Y-87.744
X109.4Y-89.13
X109.4Y-90.515
X109.4Y-91.901
X109.4Y-93.286
X109.4Y-94.672
X109.4Y-96.058
X109.4Y-97.443
X109.4Y-98.829
X109.4Y-100.214
X109.4Y-101.6
X109.4Y-102.986
X109.4Y-104.371
X109.4Y-105.757
X109.4Y-107.142
X109.4Y-108.528
X109.4Y-109.914
X109.4Y-111.299
X109.4Y-112.685
X109.4Y-114.07
X109.4Y-115.456
X109.4Y-116.842
X109.4Y-118.227
X109.4Y-119.613
X109.4Y-120.998
X109.4Y-122.384
X109.4Y-123.77
X109.4Y-125.155
X109.8Y-77.352
X109.8Y-78.738
X109.8Y-80.123
X109.8Y-81.509
X109.8Y-82.894
X109.8Y-84.28
X109.8Y-85.666
X109.8Y-87.051
X109.8Y-88.437
X109.8Y-89.822
X109.8Y-91.208
X109.8Y-92.594
X109.8Y-93.979
X109.8Y-95.365
X109.8Y-96.75
X109.8Y-98.136
X109.8Y-99.522
X109.8Y-100.907
X109.8Y-102.293
X109.8Y-103.678
X109.8Y-105.064
X109.8Y-106.45
X109.8Y-107.835
X109.8Y-109.221
X109.8Y-110.606
X109.8Y-111.992
X109.8Y-113.378
X109.8Y-114.763
X109.8Y-116.149
X109.8Y-117.534
X109.8Y-118.92
X109.8Y-120.306
X109.8Y-121.691
X109.8Y-123.077
X109.8Y-124.462
X109.8Y-125.848
X110.2Y-78.045
X110.2Y-79.43
X110.2Y-80.816
X110.2Y-82.202
X110.2Y-83.587
X110.2Y-84.973
X110.2Y-86.358
X110.2Y-87.744
X110.2Y-89.13
X110.2Y-90.515
X110.2Y-91.901
X110.2Y-93.286
X110.2Y-94.672
X110.2Y-96.058
X110.2Y-97.443
X110.2Y-98.829
X110.2Y-100.214
X110.2Y-101.6
X110.2Y-102.986
X110.2Y-104.371
X110.2Y-105.757
X110.2Y-107.142
X110.2Y-108.528
X110.2Y-109.914
X110.2Y-111.299
X110.2Y-112.685
X110.2Y-114.07
X110.2Y-115.456
X110.2Y-116.842
X110.2Y-118.227
X110.2Y-119.613
X110.2Y-120.998
X110.2Y-122.384
X110.2Y-123.77
X110.2Y-125.155
X110.6Y-77.352
X110.6Y-78.738
X110.6Y-80.123
X110.6Y-81.509
X110.6Y-82.894
X110.6Y-84.28
X110.6Y-85.666
X110.6Y-87.051
X110.6Y-88.437
X110.6Y-89.822
X110.6Y-91.208
X110.6Y-92.594
X110.6Y-93.979
X110.6Y-95.365
X110.6Y-96.75
X110.6Y-98.136
X110.6Y-99.522
X110.6Y-100.907
X110.6Y-102.293
X110.6Y-103.678
X110.6Y-105.064
X110.6Y-106.45
X110.6Y-107.835
X110.6Y-109.221
X110.6Y-110.606
X110.6Y-111.992
X110.6Y-113.378
X110.6Y-114.763
X110.6Y-116.149
X110.6Y-117.534
X110.6Y-118.92
X110.6Y-120.306
X110.6Y-121.691
X110.6Y-123.077
X110.6Y-124.462
X110.6Y-125.848
X111.0Y-76.659
X111.0Y-78.045
X111.0Y-79.43
X111.0Y-80.816
X111.0Y-82.202
X111.0Y-83.587
X111.0Y-84.973
X111.0Y-86.358
X111.0Y-87.744
X111.0Y-89.13
X111.0Y-90.515
X111.0Y-91.901
X111.0Y-93.286
X111.0Y-94.672
X111.0Y-96.058
X111.0Y-97.443
X111.0Y-98.829
X111.0Y-100.214
X111.0Y-101.6
X111.0Y-102.986
X111.0Y-104.371
X111.0Y-105.757
X111.0Y-107.142
X111.0Y-108.528
X111.0Y-109.914
X111.0Y-111.299
X111.0Y-112.685
X111.0Y-114.07
X111.0Y-115.456
X111.0Y-116.842
X111.0Y-118.227
X111.0Y-119.613
X111.0Y-120.998
X111.0Y-122.384
X111.0Y-123.77
X111.0Y-125.155
X111.0Y-126.541
X111.4Y-77.352
X111.4Y-78.738
X111.4Y-80.123
X111.4Y-81.509
X111.4Y-82.894
X111.4Y-84.28
X111.4Y-85.666
X111.4Y-87.051
X111.4Y-88.437
X111.4Y-89.822
X111.4Y-91.208
X111.4Y-92.594
X111.4Y-93.979
X111.4Y-95.365
X111.4Y-96.75
X111.4Y-98.136
X111.4Y-99.522
X111.4Y-100.907
X111.4Y-102.293
X111.4Y-103.678
X111.4Y-105.064
X111.4Y-106.45
X111.4Y-107.835
X111.4Y-109.221
X111.4Y-110.606
X111.4Y-111.992
X111.4Y-113.378
X111.4Y-114.763
X111.4Y-116.149
X111.4Y-117.534
X111.4Y-118.92
X111.4Y-120.306
X111.4Y-121.691
X111.4Y-123.077
X111.4Y-124.462
X111.4Y-125.848
X111.8Y-76.659
X111.8Y-78.045
X111.8Y-79.43
X111.8Y-80.816
X111.8Y-82.202
X111.8Y-83.587
X111.8Y-84.973
X111.8Y-86.358
X111.8Y-87.744
X111.8Y-89.13
X111.8Y-90.515
X111.8Y-91.901
X111.8Y-93.286
X111.8Y-94.672
X111.8Y-96.058
X111.8Y-97.443
X111.8Y-98.829
X111.8Y-100.214
X111.8Y-101.6
X111.8Y-102.986
X111.8Y-104.371
X111.8Y-105.757
X111.8Y-107.142
X111.8Y-108.528
X111.8Y-109.914
X111.8Y-111.299
X111.8Y-112.685
X111.8Y-114.07
X111.8Y-115.456
X111.8Y-116.842
X111.8Y-118.227
X111.8Y-119.613
X111.8Y-120.998
X111.8Y-122.384
X111.8Y-123.77
X111.8Y-125.155
X111.8Y-126.541
X112.2Y-75.966
X112.2Y-77.352
X112.2Y-78.738
X112.2Y-80.123
X112.2Y-81.509
X112.2Y-82.894
X112.2Y-84.28
X112.2Y-85.666
X112.2Y-87.051
X112.2Y-88.437
X112.2Y-89.822
X112.2Y-91.208
X112.2Y-92.594
X112.2Y-93.979
X112.2Y-95.365
X112.2Y-96.75
X112.2Y-98.136
X112.2Y-99.522
X112.2Y-100.907
X112.2Y-102.293
X112.2Y-103.678
X112.2Y-105.064
X112.2Y-106.45
X112.2Y-107.835
X112.2Y-109.221
X112.2Y-110.606
X112.2Y-111.992
X112.2Y-113.378
X112.2Y-114.763
X112.2Y-116.149
X112.2Y-117.534
X112.2Y-118.92
X112.2Y-120.306
X112.2Y-121.691
X112.2Y-123.077
X112.2Y-124.462
X112.2Y-125.848
X112.2Y-127.234
X112.6Y-76.659
X112.6Y-78.045
X112.6Y-79.43
X112.6Y-80.816
X112.6Y-82.202
X112.6Y-83.587
X112.6Y-84.973
X112.6Y-86.358
X112.6Y-87.744
X112.6Y-89.13
X112.6Y-90.515
X112.6Y-91.901
X112.6Y-93.286
X112.6Y-94.672
X112.6Y-96.058
X112.6Y-97.443
X112.6Y-98.829
X112.6Y-100.214
X112.6Y-101.6
X112.6Y-102.986
X112.6Y-104.371
X112.6Y-105.757
X112.6Y-107.142
X112.6Y-108.528
X112.6Y-109.914
X112.6Y-111.299
X112.6Y-112.685
X112.6Y-114.07
X112.6Y-115.456
X112.6Y-116.842
X112.6Y-118.227
X112.6Y-119.613
X112.6Y-120.998
X112.6Y-122.384
X112.6Y-123.77
X112.6Y-125.155
X112.6Y-126.541
X113.0Y-75.966
X113.0Y-77.352
X113.0Y-78.738
X113.0Y-80.123
X113.0Y-81.509
X113.0Y-82.894
X113.0Y-84.28
X113.0Y-85.666
X113.0Y-87.051
X113.0Y-88.437
X113.0Y-89.822
X113.0Y-91.208
X113.0Y-92.594
X113.0Y-93.979
X113.0Y-95.365
X113.0Y-96.75
X113.0Y-98.136
X113.0Y-99.522
X113.0Y-100.907
X113.0Y-102.293
X113.0Y-103.678
X113.0Y-105.064
X113.0Y-106.45
X113.0Y-107.835
X113.0Y-109.221
X113.0Y-110.606
X113.0Y-111.992
X113.0Y-113.378
X113.0Y-114.763
X113.0Y-116.149
X113.0Y-117.534
X113.0Y-118.92
X113.0Y-120.306
X113.0Y-121.691
X113.0Y-123.077
X113.0Y-124.462
X113.0Y-125.848
X113.0Y-127.234
X113.4Y-75.274
X113.4Y-76.659
X113.4Y-78.045
X113.4Y-79.43
X113.4Y-80.816
X113.4Y-82.202
X113.4Y-83.587
X113.4Y-84.973
X113.4Y-86.358
X113.4Y-87.744
X113.4Y-89.13
X113.4Y-90.515
X113.4Y-91.901
X113.4Y-93.286
X113.4Y-94.672
X113.4Y-96.058
X113.4Y-97.443
X113.4Y-98.829
X113.4Y-100.214
X113.4Y-101.6
X113.4Y-102.986
X113.4Y-104.371
X113.4Y-105.757
X113.4Y-107.142
X113.4Y-108.528
X113.4Y-109.914
X113.4Y-111.299
X113.4Y-112.685
X113.4Y-114.07
X113.4Y-115.456
X113.4Y-116.842
X113.4Y-118.227
X113.4Y-119.613
X113.4Y-120.998
X113.4Y-122.384
X113.4Y-123.77
X113.4Y-125.155
X113.4Y-126.541
X113.4Y-127.926
X113.8Y-75.966
X113.8Y-77.352
X113.8Y-78.738
X113.8Y-80.123
X113.8Y-81.509
X113.8Y-82.894
X113.8Y-84.28
X113.8Y-85.666
X113.8Y-87.051
X113.8Y-88.437
X113.8Y-89.822
X113.8Y-91.208
X113.8Y-92.594
X113.8Y-93.979
X113.8Y-95.365
X113.8Y-96.75
X113.8Y-98.136
X113.8Y-99.522
X113.8Y-100.907
X113.8Y-102.293
X113.8Y-103.678
X113.8Y-105.064
X113.8Y-106.45
X113.8Y-107.835
X113.8Y-109.221
X113.8Y-110.606
X113.8Y-111.992
X113.8Y-113.378
X113.8Y-114.763
X113.8Y-116.149
X113.8Y-117.534
X113.8Y-118.92
X113.8Y-120.306
X113.8Y-121.691
X113.8Y-123.077
X113.8Y-124.462
X113.8Y-125.848
X113.8Y-127.234
X114.2Y-75.274
X114.2Y-76.659
X114.2Y-78.045
X114.2Y-79.43
X114.2Y-80.816
X114.2Y-82.202
X114.2Y-83.587
X114.2Y-84.973
X114.2Y-86.358
X114.2Y-87.744
X114.2Y-89.13
X114.2Y-90.515
X114.2Y-91.901
X114.2Y-93.286
X114.2Y-94.672
X114.2Y-96.058
X114.2Y-97.443
X114.2Y-98.829
X114.2Y-100.214
X114.2Y-101.6
X114.2Y-102.986
X114.2Y-104.371
X114.2Y-105.757
X114.2Y-107.142
X114.2Y-108.528
X114.2Y-109.914
X114.2Y-111.299
X114.2Y-112.685
X114.2Y-114.07
X114.2Y-115.456
X114.2Y-116.842
X114.2Y-118.227
X114.2Y-119.613
X114.2Y-120.998
X114.2Y-122.384
X114.2Y-123.77
X114.2Y-125.155
X114.2Y-126.541
X114.2Y-127.926
X114.6Y-74.581
X114.6Y-75.966
X114.6Y-77.352
X114.6Y-78.738
X114.6Y-80.123
X114.6Y-81.509
X114.6Y-82.894
X114.6Y-84.28
X114.6Y-85.666
X114.6Y-87.051
X114.6Y-88.437
X114.6Y-89.822
X114.6Y-91.208
X114.6Y-92.594
X114.6Y-93.979
X114.6Y-95.365
X114.6Y-96.75
X114.6Y-98.136
X114.6Y-99.522
X114.6Y-100.907
X114.6Y-102.293
X114.6Y-103.678
X114.6Y-105.064
X114.6Y-106.45
X114.6Y-107.835
X114.6Y-109.221
X114.6Y-110.606
X114.6Y-111.992
X114.6Y-113.378
X114.6Y-114.763
X114.6Y-116.149
X114.6Y-117.534
X114.6Y-118.92
X114.6Y-120.306
X114.6Y-121.691
X114.6Y-123.077
X114.6Y-124.462
X114.6Y-125.848
X114.6Y-127.234
X114.6Y-128.619
X115.0Y-75.274
X115.0Y-76.659
X115.0Y-78.045
X115.0Y-79.43
X115.0Y-80.816
X115.0Y-82.202
X115.0Y-83.587
X115.0Y-84.973
X115.0Y-86.358
X115.0Y-87.744
X115.0Y-89.13
X115.0Y-90.515
X115.0Y-91.901
X115.0Y-93.286
X115.0Y-94.672
X115.0Y-96.058
X115.0Y-97.443
X115.0Y-98.829
X115.0Y-100.214
X115.0Y-101.6
X115.0Y-102.986
X115.0Y-104.371
X115.0Y-105.757
X115.0Y-107.142
X115.0Y-108.528
X115.0Y-109.914
X115.0Y-111.299
X115.0Y-112.685
X115.0Y-114.07
X115.0Y-115.456
X115.0Y-116.842
X115.0Y-118.227
X115.0Y-119.613
X115.0Y-120.998
X115.0Y-122.384
X115.0Y-123.77
X115.0Y-125.155
X115.0Y-126.541
X115.0Y-127.926
X115.4Y-74.581
X115.4Y-75.966
X115.4Y-77.352
X115.4Y-78.738
X115.4Y-80.123
X115.4Y-81.509
X115.4Y-82.894
X115.4Y-84.28
X115.4Y-85.666
X115.4Y-87.051
X115.4Y-88.437
X115.4Y-89.822
X115.4Y-91.208
X115.4Y-92.594
X115.4Y-93.979
X115.4Y-95.365
X115.4Y-96.75
X115.4Y-98.136
X115.4Y-99.522
X115.4Y-100.907
X115.4Y-102.293
X115.4Y-103.678
X115.4Y-105.064
X115.4Y-106.45
X115.4Y-107.835
X115.4Y-109.221
X115.4Y-110.606
X115.4Y-111.992
X115.4Y-113.378
X115.4Y-114.763
X115.4Y-116.149
X115.4Y-117.534
X115.4Y-118.92
X115.4Y-120.306
X115.4Y-121.691
X115.4Y-123.077
X115.4Y-124.462
X115.4Y-125.848
X115.4Y-127.234
X115.4Y-128.619
X115.8Y-73.888
X115.8Y-75.274
X115.8Y-76.659
X115.8Y-78.045
X115.8Y-79.43
X115.8Y-80.816
X115.8Y-82.202
X115.8Y-83.587
X115.8Y-84.973
X115.8Y-86.358
X115.8Y-87.744
X115.8Y-89.13
X115.8Y-90.515
X115.8Y-91.901
X115.8Y-93.286
X115.8Y-94.672
X115.8Y-96.058
X115.8Y-97.443
X115.8Y-98.829
X115.8Y-100.214
X115.8Y-101.6
X115.8Y-102.986
X115.8Y-104.371
X115.8Y-105.757
X115.8Y-107.142
X115.8Y-108.528
X115.8Y-109.914
X115.8Y-111.299
X115.8Y-112.685
X115.8Y-114.07
X115.8Y-115.456
X115.8Y-116.842
X115.8Y-118.227
X115.8Y-119.613
X115.8Y-120.998
X115.8Y-122.384
X115.8Y-123.77
X115.8Y-125.155
X115.8Y-126.541
X115.8Y-127.926
X115.8Y-129.312
X116.2Y-74.581
X116.2Y-75.966
X116.2Y-77.352
X116.2Y-78.738
X116.2Y-80.123
X116.2Y-81.509
X116.2Y-82.894
X116.2Y-84.28
X116.2Y-85.666
X116.2Y-87.051
X116.2Y-88.437
X116.2Y-89.822
X116.2Y-91.208
X116.2Y-92.594
X116.2Y-93.979
X116.2Y-95.365
X116.2Y-96.75
X116.2Y-98.136
X116.2Y-99.522
X116.2Y-100.907
X116.2Y-102.293
X116.2Y-103.678
X116.2Y-105.064
X116.2Y-106.45
X116.2Y-107.835
X116.2Y-109.221
X116.2Y-110.606
X116.2Y-111.992
X116.2Y-113.378
X116.2Y-114.763
X116.2Y-116.149
X116.2Y-117.534
X116.2Y-118.92
X116.2Y-120.306
X116.2Y-121.691
X116.2Y-123.077
X116.2Y-124.462
X116.2Y-125.848
X116.2Y-127.234
X116.2Y-128.619
X116.6Y-73.888
X116.6Y-75.274
X116.6Y-76.659
X116.6Y-78.045
X116.6Y-79.43
X116.6Y-80.816
X116.6Y-82.202
X116.6Y-83.587
X116.6Y-84.973
X116.6Y-86.358
X116.6Y-87.744
X116.6Y-89.13
X116.6Y-90.515
X116.6Y-91.901
X116.6Y-93.286
X116.6Y-94.672
X116.6Y-96.058
X116.6Y-97.443
X116.6Y-98.829
X116.6Y-100.214
X116.6Y-101.6
X116.6Y-102.986
X116.6Y-104.371
X116.6Y-105.757
X116.6Y-107.142
X116.6Y-108.528
X116.6Y-109.914
X116.6Y-111.299
X116.6Y-112.685
X116.6Y-114.07
X116.6Y-115.456
X116.6Y-116.842
X116.6Y-118.227
X116.6Y-119.613
X116.6Y-120.998
X116.6Y-122.384
X116.6Y-123.77
X116.6Y-125.155
X116.6Y-126.541
X116.6Y-127.926
X116.6Y-129.312
X117.0Y-74.581
X117.0Y-75.966
X117.0Y-77.352
X117.0Y-78.738
X117.0Y-80.123
X117.0Y-81.509
X117.0Y-82.894
X117.0Y-84.28
X117.0Y-85.666
X117.0Y-87.051
X117.0Y-88.437
X117.0Y-89.822
X117.0Y-91.208
X117.0Y-92.594
X117.0Y-93.979
X117.0Y-95.365
X117.0Y-96.75
X117.0Y-98.136
X117.0Y-99.522
X117.0Y-100.907
X117.0Y-102.293
X117.0Y-103.678
X117.0Y-105.064
X117.0Y-106.45
X117.0Y-107.835
X117.0Y-109.221
X117.0Y-110.606
X117.0Y-111.992
X117.0Y-113.378
X117.0Y-114.763
X117.0Y-116.149
X117.0Y-117.534
X117.0Y-118.92
X117.0Y-120.306
X117.0Y-121.691
X117.0Y-123.077
X117.0Y-124.462
X117.0Y-125.848
X117.0Y-127.234
X117.0Y-128.619
X117.4Y-73.888
X117.4Y-75.274
X117.4Y-76.659
X117.4Y-78.045
X117.4Y-79.43
X117.4Y-80.816
X117.4Y-82.202
X117.4Y-83.587
X117.4Y-84.973
X117.4Y-86.358
X117.4Y-87.744
X117.4Y-89.13
X117.4Y-90.515
X117.4Y-91.901
X117.4Y-93.286
X117.4Y-94.672
X117.4Y-96.058
X117.4Y-97.443
X117.4Y-98.829
X117.4Y-100.214
X117.4Y-101.6
X117.4Y-102.986
X117.4Y-104.371
X117.4Y-105.757
X117.4Y-107.142
X117.4Y-108.528
X117.4Y-109.914
X117.4Y-111.299
X117.4Y-112.685
X117.4Y-114.07
X117.4Y-115.456
X117.4Y-116.842
X117.4Y-118.227
X117.4Y-119.613
X117.4Y-120.998
X117.4Y-122.384
X117.4Y-123.77
X117.4Y-125.155
X117.4Y-126.541
X117.4Y-127.926
X117.4Y-129.312
X117.8Y-73.195
X117.8Y-74.581
X117.8Y-75.966
X117.8Y-77.352
X117.8Y-78.738
X117.8Y-80.123
X117.8Y-81.509
X117.8Y-82.894
X117.8Y-84.28
X117.8Y-85.666
X117.8Y-87.051
X117.8Y-88.437
X117.8Y-89.822
X117.8Y-91.208
X117.8Y-92.594
X117.8Y-93.979
X117.8Y-95.365
X117.8Y-96.75
X117.8Y-98.136
X117.8Y-99.522
X117.8Y-100.907
X117.8Y-102.293
X117.8Y-103.678
X117.8Y-105.064
X117.8Y-106.45
X117.8Y-107.835
X117.8Y-109.221
X117.8Y-110.606
X117.8Y-111.992
X117.8Y-113.378
X117.8Y-114.763
X117.8Y-116.149
X117.8Y-117.534
X117.8Y-118.92
X117.8Y-120.306
X117.8Y-121.691
X117.8Y-123.077
X117.8Y-124.462
X117.8Y-125.848
X117.8Y-127.234
X117.8Y-128.619
X117.8Y-130.005
X118.2Y-73.888
X118.2Y-75.274
X118.2Y-76.659
X118.2Y-78.045
X118.2Y-79.43
X118.2Y-80.816
X118.2Y-82.202
X118.2Y-83.587
X118.2Y-84.973
X118.2Y-86.358
X118.2Y-87.744
X118.2Y-89.13
X118.2Y-90.515
X118.2Y-91.901
X118.2Y-93.286
X118.2Y-94.672
X118.2Y-96.058
X118.2Y-97.443
X118.2Y-98.829
X118.2Y-100.214
X118.2Y-101.6
X118.2Y-102.986
X118.2Y-104.371
X118.2Y-105.757
X118.2Y-107.142
X118.2Y-108.528
X118.2Y-109.914
X118.2Y-111.299
X118.2Y-112.685
X118.2Y-114.07
X118.2Y-115.456
X118.2Y-116.842
X118.2Y-118.227
X118.2Y-119.613
X118.2Y-120.998
X118.2Y-122.384
X118.2Y-123.77
X118.2Y-125.155
X118.2Y-126.541
X118.2Y-127.926
X118.2Y-129.312
X118.6Y-73.195
X118.6Y-74.581
X118.6Y-75.966
X118.6Y-77.352
X118.6Y-78.738
X118.6Y-80.123
X118.6Y-81.509
X118.6Y-82.894
X118.6Y-84.28
X118.6Y-85.666
X118.6Y-87.051
X118.6Y-88.437
X118.6Y-89.822
X118.6Y-91.208
X118.6Y-92.594
X118.6Y-93.979
X118.6Y-95.365
X118.6Y-96.75
X118.6Y-98.136
X118.6Y-99.522
X118.6Y-100.907
X118.6Y-102.293
X118.6Y-103.678
X118.6Y-105.064
X118.6Y-106.45
X118.6Y-107.835
X118.6Y-109.221
X118.6Y-110.606
X118.6Y-111.992
X118.6Y-113.378
X118.6Y-114.763
X118.6Y-116.149
X118.6Y-117.534
X118.6Y-118.92
X118.6Y-120.306
X118.6Y-121.691
X118.6Y-123.077
X118.6Y-124.462
X118.6Y-125.848
X118.6Y-127.234
X118.6Y-128.619
X118.6Y-130.005
X119.0Y-73.888
X119.0Y-75.274
X119.0Y-76.659
X119.0Y-78.045
X119.0Y-79.43
X119.0Y-80.816
X119.0Y-82.202
X119.0Y-83.587
X119.0Y-84.973
X119.0Y-86.358
X119.0Y-87.744
X119.0Y-89.13
X119.0Y-90.515
X119.0Y-91.901
X119.0Y-93.286
X119.0Y-94.672
X119.0Y-96.058
X119.0Y-97.443
X119.0Y-98.829
X119.0Y-100.214
X119.0Y-101.6
X119.0Y-102.986
X119.0Y-104.371
X119.0Y-105.757
X119.0Y-107.142
X119.0Y-108.528
X119.0Y-109.914
X119.0Y-111.299
X119.0Y-112.685
X119.0Y-114.07
X119.0Y-115.456
X119.0Y-116.842
X119.0Y-118.227
X119.0Y-119.613
X119.0Y-120.998
X119.0Y-122.384
X119.0Y-123.77
X119.0Y-125.155
X119.0Y-126.541
X119.0Y-127.926
X119.0Y-129.312
X119.4Y-73.195
X119.4Y-74.581
X119.4Y-75.966
X119.4Y-77.352
X119.4Y-78.738
X119.4Y-80.123
X119.4Y-81.509
X119.4Y-82.894
X119.4Y-84.28
X119.4Y-85.666
X119.4Y-87.051
X119.4Y-88.437
X119.4Y-89.822
X119.4Y-91.208
X119.4Y-92.594
X119.4Y-93.979
X119.4Y-95.365
X119.4Y-96.75
X119.4Y-98.136
X119.4Y-99.522
X119.4Y-100.907
X119.4Y-102.293
X119.4Y-103.678
X119.4Y-105.064
X119.4Y-106.45
X119.4Y-107.835
X119.4Y-109.221
X119.4Y-110.606
X119.4Y-111.992
X119.4Y-113.378
X119.4Y-114.763
X119.4Y-116.149
X119.4Y-117.534
X119.4Y-118.92
X119.4Y-120.306
X119.4Y-121.691
X119.4Y-123.077
X119.4Y-124.462
X119.4Y-125.848
X119.4Y-127.234
X119.4Y-128.619
X119.4Y-130.005
X119.8Y-72.502
X119.8Y-73.888
X119.8Y-75.274
X119.8Y-76.659
X119.8Y-78.045
X119.8Y-79.43
X119.8Y-80.816
X119.8Y-82.202
X119.8Y-83.587
X119.8Y-84.973
X119.8Y-86.358
X119.8Y-87.744
X119.8Y-89.13
X119.8Y-90.515
X119.8Y-91.901
X119.8Y-93.286
X119.8Y-94.672
X119.8Y-96.058
X119.8Y-97.443
X119.8Y-98.829
X119.8Y-100.214
X119.8Y-101.6
X119.8Y-102.986
X119.8Y-104.371
X119.8Y-105.757
X119.8Y-107.142
X119.8Y-108.528
X119.8Y-109.914
X119.8Y-111.299
X119.8Y-112.685
X119.8Y-114.07
X119.8Y-115.456
X119.8Y-116.842
X119.8Y-118.227
X119.8Y-119.613
X119.8Y-120.998
X119.8Y-122.384
X119.8Y-123.77
X119.8Y-125.155
X119.8Y-126.541
X119.8Y-127.926
X119.8Y-129.312
X119.8Y-130.698
X120.2Y-73.195
X120.2Y-74.581
X120.2Y-75.966
X120.2Y-77.352
X120.2Y-78.738
X120.2Y-80.123
X120.2Y-81.509
X120.2Y-82.894
X120.2Y-84.28
X120.2Y-85.666
X120.2Y-87.051
X120.2Y-88.437
X120.2Y-89.822
X120.2Y-91.208
X120.2Y-92.594
X120.2Y-93.979
X120.2Y-95.365
X120.2Y-96.75
X120.2Y-98.136
X120.2Y-99.522
X120.2Y-100.907
X120.2Y-102.293
X120.2Y-103.678
X120.2Y-105.064
X120.2Y-106.45
X120.2Y-107.835
X120.2Y-109.221
X120.2Y-110.606
X120.2Y-111.992
X120.2Y-113.378
X120.2Y-114.763
X120.2Y-116.149
X120.2Y-117.534
X120.2Y-118.92
X120.2Y-120.306
X120.2Y-121.691
X120.2Y-123.077
X120.2Y-124.462
X120.2Y-125.848
X120.2Y-127.234
X120.2Y-128.619
X120.2Y-130.005
X120.6Y-72.502
X120.6Y-73.888
X120.6Y-75.274
X120.6Y-76.659
X120.6Y-78.045
X120.6Y-79.43
X120.6Y-80.816
X120.6Y-82.202
X120.6Y-83.587
X120.6Y-84.973
X120.6Y-86.358
X120.6Y-87.744
X120.6Y-89.13
X120.6Y-90.515
X120.6Y-91.901
X120.6Y-93.286
X120.6Y-94.672
X120.6Y-96.058
X120.6Y-97.443
X120.6Y-98.829
X120.6Y-100.214
X120.6Y-101.6
X120.6Y-102.986
X120.6Y-104.371
X120.6Y-105.757
X120.6Y-107.142
X120.6Y-108.528
X120.6Y-109.914
X120.6Y-111.299
X120.6Y-112.685
X120.6Y-114.07
X120.6Y-115.456
X120.6Y-116.842
X120.6Y-118.227
X120.6Y-119.613
X120.6Y-120.998
X120.6Y-122.384
X120.6Y-123.77
X120.6Y-125.155
X120.6Y-126.541
X120.6Y-127.926
X120.6Y-129.312
X120.6Y-130.698
X121.0Y-73.195
X121.0Y-74.581
X121.0Y-75.966
X121.0Y-77.352
X121.0Y-78.738
X121.0Y-80.123
X121.0Y-81.509
X121.0Y-82.894
X121.0Y-84.28
X121.0Y-85.666
X121.0Y-87.051
X121.0Y-88.437
X121.0Y-89.822
X121.0Y-91.208
X121.0Y-92.594
X121.0Y-93.979
X121.0Y-95.365
X121.0Y-96.75
X121.0Y-98.136
X121.0Y-99.522
X121.0Y-100.907
X121.0Y-102.293
X121.0Y-103.678
X121.0Y-105.064
X121.0Y-106.45
X121.0Y-107.835
X121.0Y-109.221
X121.0Y-110.606
X121.0Y-111.992
X121.0Y-113.378
X121.0Y-114.763
X121.0Y-116.149
X121.0Y-117.534
X121.0Y-118.92
X121.0Y-120.306
X121.0Y-121.691
X121.0Y-123.077
X121.0Y-124.462
X121.0Y-125.848
X121.0Y-127.234
X121.0Y-128.619
X121.0Y-130.005
X121.4Y-72.502
X121.4Y-73.888
X121.4Y-75.274
X121.4Y-76.659
X121.4Y-78.045
X121.4Y-79.43
X121.4Y-80.816
X121.4Y-82.202
X121.4Y-83.587
X121.4Y-84.973
X121.4Y-86.358
X121.4Y-87.744
X121.4Y-89.13
X121.4Y-90.515
X121.4Y-91.901
X121.4Y-93.286
X121.4Y-94.672
X121.4Y-96.058
X121.4Y-97.443
X121.4Y-98.829
X121.4Y-100.214
X121.4Y-101.6
X121.4Y-102.986
X121.4Y-104.371
X121.4Y-105.757
X121.4Y-107.142
X121.4Y-108.528
X121.4Y-109.914
X121.4Y-111.299
X121.4Y-112.685
X121.4Y-114.07
X121.4Y-115.456
X121.4Y-116.842
X121.4Y-118.227
X121.4Y-119.613
X121.4Y-120.998
X121.4Y-122.384
X121.4Y-123.77
X121.4Y-125.155
X121.4Y-126.541
X121.4Y-127.926
X121.4Y-129.312
X121.4Y-130.698
X121.8Y-73.195
X121.8Y-74.581
X121.8Y-75.966
X121.8Y-77.352
X121.8Y-78.738
X121.8Y-80.123
X121.8Y-81.509
X121.8Y-82.894
X121.8Y-84.28
X121.8Y-85.666
X121.8Y-87.051
X121.8Y-88.437
X121.8Y-89.822
X121.8Y-91.208
X121.8Y-92.594
X121.8Y-93.979
X121.8Y-95.365
X121.8Y-96.75
X121.8Y-98.136
X121.8Y-99.522
X121.8Y-100.907
X121.8Y-102.293
X121.8Y-103.678
X121.8Y-105.064
X121.8Y-106.45
X121.8Y-107.835
X121.8Y-109.221
X121.8Y-110.606
X121.8Y-111.992
X121.8Y-113.378
X121.8Y-114.763
X121.8Y-116.149
X121.8Y-117.534
X121.8Y-118.92
X121.8Y-120.306
X121.8Y-121.691
X121.8Y-123.077
X121.8Y-124.462
X121.8Y-125.848
X121.8Y-127.234
X121.8Y-128.619
X121.8Y-130.005
X122.2Y-72.502
X122.2Y-73.888
X122.2Y-75.274
X122.2Y-76.659
X122.2Y-78.045
X122.2Y-79.43
X122.2Y-80.816
X122.2Y-82.202
X122.2Y-83.587
X122.2Y-84.973
X122.2Y-86.358
X122.2Y-87.744
X122.2Y-89.13
X122.2Y-90.515
X122.2Y-91.901
X122.2Y-93.286
X122.2Y-94.672
X122.2Y-96.058
X122.2Y-97.443
X122.2Y-98.829
X122.2Y-100.214
X122.2Y-101.6
X122.2Y-102.986
X122.2Y-104.371
X122.2Y-105.757
X122.2Y-107.142
X122.2Y-108.528
X122.2Y-109.914
X122.2Y-111.299
X122.2Y-112.685
X122.2Y-114.07
X122.2Y-115.456
X122.2Y-116.842
X122.2Y-118.227
X122.2Y-119.613
X122.2Y-120.998
X122.2Y-122.384
X122.2Y-123.77
X122.2Y-125.155
X122.2Y-126.541
X122.2Y-127.926
X122.2Y-129.312
X122.2Y-130.698
X122.6Y-73.195
X122.6Y-74.581
X122.6Y-75.966
X122.6Y-77.352
X122.6Y-78.738
X122.6Y-80.123
X122.6Y-81.509
X122.6Y-82.894
X122.6Y-84.28
X122.6Y-85.666
X122.6Y-87.051
X122.6Y-88.437
X122.6Y-89.822
X122.6Y-91.208
X122.6Y-92.594
X122.6Y-93.979
X122.6Y-95.365
X122.6Y-96.75
X122.6Y-98.136
X122.6Y-99.522
X122.6Y-100.907
X122.6Y-102.293
X122.6Y-103.678
X122.6Y-105.064
X122.6Y-106.45
X122.6Y-107.835
X122.6Y-109.221
X122.6Y-110.606
X122.6Y-111.992
X122.6Y-113.378
X122.6Y-114.763
X122.6Y-116.149
X122.6Y-117.534
X122.6Y-118.92
X122.6Y-120.306
X122.6Y-121.691
X122.6Y-123.077
X122.6Y-124.462
X122.6Y-125.848
X122.6Y-127.234
X122.6Y-128.619
X122.6Y-130.005
X123.0Y-72.502
X123.0Y-73.888
X123.0Y-75.274
X123.0Y-76.659
X123.0Y-78.045
X123.0Y-79.43
X123.0Y-80.816
X123.0Y-82.202
X123.0Y-83.587
X123.0Y-84.973
X123.0Y-86.358
X123.0Y-87.744
X123.0Y-89.13
X123.0Y-90.515
X123.0Y-91.901
X123.0Y-93.286
X123.0Y-94.672
X123.0Y-96.058
X123.0Y-97.443
X123.0Y-98.829
X123.0Y-100.214
X123.0Y-101.6
X123.0Y-102.986
X123.0Y-104.371
X123.0Y-105.757
X123.0Y-107.142
X123.0Y-108.528
X123.0Y-109.914
X123.0Y-111.299
X123.0Y-112.685
X123.0Y-114.07
X123.0Y-115.456
X123.0Y-116.842
X123.0Y-118.227
X123.0Y-119.613
X123.0Y-120.998
X123.0Y-122.384
X123.0Y-123.77
X123.0Y-125.155
X123.0Y-126.541
X123.0Y-127.926
X123.0Y-129.312
X123.0Y-130.698
X123.4Y-73.195
X123.4Y-74.581
X123.4Y-75.966
X123.4Y-77.352
X123.4Y-78.738
X123.4Y-80.123
X123.4Y-81.509
X123.4Y-82.894
X123.4Y-84.28
X123.4Y-85.666
X123.4Y-87.051
X123.4Y-88.437
X123.4Y-89.822
X123.4Y-91.208
X123.4Y-92.594
X123.4Y-93.979
X123.4Y-95.365
X123.4Y-96.75
X123.4Y-98.136
X123.4Y-99.522
X123.4Y-100.907
X123.4Y-102.293
X123.4Y-103.678
X123.4Y-105.064
X123.4Y-106.45
X123.4Y-107.835
X123.4Y-109.221
X123.4Y-110.606
X123.4Y-111.992
X123.4Y-113.378
X123.4Y-114.763
X123.4Y-116.149
X123.4Y-117.534
X123.4Y-118.92
X123.4Y-120.306
X123.4Y-121.691
X123.4Y-123.077
X123.4Y-124.462
X123.4Y-125.848
X123.4Y-127.234
X123.4Y-128.619
X123.4Y-130.005
X123.8Y-72.502
X123.8Y-73.888
X123.8Y-75.274
X123.8Y-76.659
X123.8Y-78.045
X123.8Y-79.43
X123.8Y-80.816
X123.8Y-82.202
X123.8Y-83.587
X123.8Y-84.973
X123.8Y-86.358
X123.8Y-87.744
X123.8Y-89.13
X123.8Y-90.515
X123.8Y-91.901
X123.8Y-93.286
X123.8Y-94.672
X123.8Y-96.058
X123.8Y-97.443
X123.8Y-98.829
X123.8Y-100.214
X123.8Y-101.6
X123.8Y-102.986
X123.8Y-104.371
X123.8Y-105.757
X123.8Y-107.142
X123.8Y-108.528
X123.8Y-109.914
X123.8Y-111.299
X123.8Y-112.685
X123.8Y-114.07
X123.8Y-115.456
X123.8Y-116.842
X123.8Y-118.227
X123.8Y-119.613
X123.8Y-120.998
X123.8Y-122.384
X123.8Y-123.77
X123.8Y-125.155
X123.8Y-126.541
X123.8Y-127.926
X123.8Y-129.312
X123.8Y-130.698
X124.2Y-73.195
X124.2Y-74.581
X124.2Y-75.966
X124.2Y-77.352
X124.2Y-78.738
X124.2Y-80.123
X124.2Y-81.509
X124.2Y-82.894
X124.2Y-84.28
X124.2Y-85.666
X124.2Y-87.051
X124.2Y-88.437
X124.2Y-89.822
X124.2Y-91.208
X124.2Y-92.594
X124.2Y-93.979
X124.2Y-95.365
X124.2Y-96.75
X124.2Y-98.136
X124.2Y-99.522
X124.2Y-100.907
X124.2Y-102.293
X124.2Y-103.678
X124.2Y-105.064
X124.2Y-106.45
X124.2Y-107.835
X124.2Y-109.221
X124.2Y-110.606
X124.2Y-111.992
X124.2Y-113.378
X124.2Y-114.763
X124.2Y-116.149
X124.2Y-117.534
X124.2Y-118.92
X124.2Y-120.306
X124.2Y-121.691
X124.2Y-123.077
X124.2Y-124.462
X124.2Y-125.848
X124.2Y-127.234
X124.2Y-128.619
X124.2Y-130.005
X124.2Y-131.39
X124.6Y-72.502
X124.6Y-73.888
X124.6Y-75.274
X124.6Y-76.659
X124.6Y-78.045
X124.6Y-79.43
X124.6Y-80.816
X124.6Y-82.202
X124.6Y-83.587
X124.6Y-84.973
X124.6Y-86.358
X124.6Y-87.744
X124.6Y-89.13
X124.6Y-90.515
X124.6Y-91.901
X124.6Y-93.286
X124.6Y-94.672
X124.6Y-96.058
X124.6Y-97.443
X124.6Y-98.829
X124.6Y-100.214
X124.6Y-101.6
X124.6Y-102.986
X124.6Y-104.371
X124.6Y-105.757
X124.6Y-107.142
X124.6Y-108.528
X124.6Y-109.914
X124.6Y-111.299
X124.6Y-112.685
X124.6Y-114.07
X124.6Y-115.456
X124.6Y-116.842
X124.6Y-118.227
X124.6Y-119.613
X124.6Y-120.998
X124.6Y-122.384
X124.6Y-123.77
X124.6Y-125.155
X124.6Y-126.541
X124.6Y-127.926
X124.6Y-129.312
X124.6Y-130.698
X125.0Y-71.81
X125.0Y-73.195
X125.0Y-74.581
X125.0Y-75.966
X125.0Y-77.352
X125.0Y-78.738
X125.0Y-80.123
X125.0Y-81.509
X125.0Y-82.894
X125.0Y-84.28
X125.0Y-85.666
X125.0Y-87.051
X125.0Y-88.437
X125.0Y-89.822
X125.0Y-91.208
X125.0Y-92.594
X125.0Y-93.979
X125.0Y-95.365
X125.0Y-96.75
X125.0Y-98.136
X125.0Y-99.522
X125.0Y-100.907
X125.0Y-102.293
X125.0Y-103.678
X125.0Y-105.064
X125.0Y-106.45
X125.0Y-107.835
X125.0Y-109.221
X125.0Y-110.606
X125.0Y-111.992
X125.0Y-113.378
X125.0Y-114.763
X125.0Y-116.149
X125.0Y-117.534
X125.0Y-118.92
X125.0Y-120.306
X125.0Y-121.691
X125.0Y-123.077
X125.0Y-124.462
X125.0Y-125.848
X125.0Y-127.234
X125.0Y-128.619
X125.0Y-130.005
X125.0Y-131.39
X125.4Y-72.502
X125.4Y-73.888
X125.4Y-75.274
X125.4Y-76.659
X125.4Y-78.045
X125.4Y-79.43
X125.4Y-80.816
X125.4Y-82.202
X125.4Y-83.587
X125.4Y-84.973
X125.4Y-86.358
X125.4Y-87.744
X125.4Y-89.13
X125.4Y-90.515
X125.4Y-91.901
X125.4Y-93.286
X125.4Y-94.672
X125.4Y-96.058
X125.4Y-97.443
X125.4Y-98.829
X125.4Y-100.214
X125.4Y-101.6
X125.4Y-102.986
X125.4Y-104.371
X125.4Y-105.757
X125.4Y-107.142
X125.4Y-108.528
X125.4Y-109.914
X125.4Y-111.299
X125.4Y-112.685
X125.4Y-114.07
X125.4Y-115.456
X125.4Y-116.842
X125.4Y-118.227
X125.4Y-119.613
X125.4Y-120.998
X125.4Y-122.384
X125.4Y-123.77
X125.4Y-125.155
X125.4Y-126.541
X125.4Y-127.926
X125.4Y-129.312
X125.4Y-130.698
X125.8Y-71.81
X125.8Y-73.195
X125.8Y-74.581
X125.8Y-75.966
X125.8Y-77.352
X125.8Y-78.738
X125.8Y-80.123
X125.8Y-81.509
X125.8Y-82.894
X125.8Y-84.28
X125.8Y-85.666
X125.8Y-87.051
X125.8Y-88.437
X125.8Y-89.822
X125.8Y-91.208
X125.8Y-92.594
X125.8Y-93.979
X125.8Y-95.365
X125.8Y-96.75
X125.8Y-98.136
X125.8Y-99.522
X125.8Y-100.907
X125.8Y-102.293
X125.8Y-103.678
X125.8Y-105.064
X125.8Y-106.45
X125.8Y-107.835
X125.8Y-109.221
X125.8Y-110.606
X125.8Y-111.992
X125.8Y-113.378
X125.8Y-114.763
X125.8Y-116.149
X125.8Y-117.534
X125.8Y-118.92
X125.8Y-120.306
X125.8Y-121.691
X125.8Y-123.077
X125.8Y-124.462
X125.8Y-125.848
X125.8Y-127.234
X125.8Y-128.619
X125.8Y-130.005
X125.8Y-131.39
X126.2Y-72.502
X126.2Y-73.888
X126.2Y-75.274
X126.2Y-76.659
X126.2Y-78.045
X126.2Y-79.43
X126.2Y-80.816
X126.2Y-82.202
X126.2Y-83.587
X126.2Y-84.973
X126.2Y-86.358
X126.2Y-87.744
X126.2Y-89.13
X126.2Y-90.515
X126.2Y-91.901
X126.2Y-93.286
X126.2Y-94.672
X126.2Y-96.058
X126.2Y-97.443
X126.2Y-98.829
X126.2Y-100.214
X126.2Y-101.6
X126.2Y-102.986
X126.2Y-104.371
X126.2Y-105.757
X126.2Y-107.142
X126.2Y-108.528
X126.2Y-109.914
X126.2Y-111.299
X126.2Y-112.685
X126.2Y-114.07
X126.2Y-115.456
X126.2Y-116.842
X126.2Y-118.227
X126.2Y-119.613
X126.2Y-120.998
X126.2Y-122.384
X126.2Y-123.77
X126.2Y-125.155
X126.2Y-126.541
X126.2Y-127.926
X126.2Y-129.312
X126.2Y-130.698
X126.6Y-71.81
X126.6Y-73.195
X126.6Y-74.581
X126.6Y-75.966
X126.6Y-77.352
X126.6Y-78.738
X126.6Y-80.123
X126.6Y-81.509
X126.6Y-82.894
X126.6Y-84.28
X126.6Y-85.666
X126.6Y-87.051
X126.6Y-88.437
X126.6Y-89.822
X126.6Y-91.208
X126.6Y-92.594
X126.6Y-93.979
X126.6Y-95.365
X126.6Y-96.75
X126.6Y-98.136
X126.6Y-99.522
X126.6Y-100.907
X126.6Y-102.293
X126.6Y-103.678
X126.6Y-105.064
X126.6Y-106.45
X126.6Y-107.835
X126.6Y-109.221
X126.6Y-110.606
X126.6Y-111.992
X126.6Y-113.378
X126.6Y-114.763
X126.6Y-116.149
X126.6Y-117.534
X126.6Y-118.92
X126.6Y-120.306
X126.6Y-121.691
X126.6Y-123.077
X126.6Y-124.462
X126.6Y-125.848
X126.6Y-127.234
X126.6Y-128.619
X126.6Y-130.005
X126.6Y-131.39
X127.0Y-72.502
X127.0Y-73.888
X127.0Y-75.274
X127.0Y-76.659
X127.0Y-78.045
X127.0Y-79.43
X127.0Y-80.816
X127.0Y-82.202
X127.0Y-83.587
X127.0Y-84.973
X127.0Y-86.358
X127.0Y-87.744
X127.0Y-89.13
X127.0Y-90.515
X127.0Y-91.901
X127.0Y-93.286
X127.0Y-94.672
X127.0Y-96.058
X127.0Y-97.443
X127.0Y-98.829
X127.0Y-100.214
X127.0Y-101.6
X127.0Y-102.986
X127.0Y-104.371
X127.0Y-105.757
X127.0Y-107.142
X127.0Y-108.528
X127.0Y-109.914
X127.0Y-111.299
X127.0Y-112.685
X127.0Y-114.07
X127.0Y-115.456
X127.0Y-116.842
X127.0Y-118.227
X127.0Y-119.613
X127.0Y-120.998
X127.0Y-122.384
X127.0Y-123.77
X127.0Y-125.155
X127.0Y-126.541
X127.0Y-127.926
X127.0Y-129.312
X127.0Y-130.698
X127.4Y-71.81
X127.4Y-73.195
X127.4Y-74.581
X127.4Y-75.966
X127.4Y-77.352
X127.4Y-78.738
X127.4Y-80.123
X127.4Y-81.509
X127.4Y-82.894
X127.4Y-84.28
X127.4Y-85.666
X127.4Y-87.051
X127.4Y-88.437
X127.4Y-89.822
X127.4Y-91.208
X127.4Y-92.594
X127.4Y-93.979
X127.4Y-95.365
X127.4Y-96.75
X127.4Y-98.136
X127.4Y-99.522
X127.4Y-100.907
X127.4Y-102.293
X127.4Y-103.678
X127.4Y-105.064
X127.4Y-106.45
X127.4Y-107.835
X127.4Y-109.221
X127.4Y-110.606
X127.4Y-111.992
X127.4Y-113.378
X127.4Y-114.763
X127.4Y-116.149
X127.4Y-117.534
X127.4Y-118.92
X127.4Y-120.306
X127.4Y-121.691
X127.4Y-123.077
X127.4Y-124.462
X127.4Y-125.848
X127.4Y-127.234
X127.4Y-128.619
X127.4Y-130.005
X127.4Y-131.39
X127.8Y-72.502
X127.8Y-73.888
X127.8Y-75.274
X127.8Y-76.659
X127.8Y-78.045
X127.8Y-79.43
X127.8Y-80.816
X127.8Y-82.202
X127.8Y-83.587
X127.8Y-84.973
X127.8Y-86.358
X127.8Y-87.744
X127.8Y-89.13
X127.8Y-90.515
X127.8Y-91.901
X127.8Y-93.286
X127.8Y-94.672
X127.8Y-96.058
X127.8Y-97.443
X127.8Y-98.829
X127.8Y-100.214
X127.8Y-101.6
X127.8Y-102.986
X127.8Y-104.371
X127.8Y-105.757
X127.8Y-107.142
X127.8Y-108.528
X127.8Y-109.914
X127.8Y-111.299
X127.8Y-112.685
X127.8Y-114.07
X127.8Y-115.456
X127.8Y-116.842
X127.8Y-118.227
X127.8Y-119.613
X127.8Y-120.998
X127.8Y-122.384
X127.8Y-123.77
X127.8Y-125.155
X127.8Y-126.541
X127.8Y-127.926
X127.8Y-129.312
X127.8Y-130.698
X128.2Y-71.81
X128.2Y-73.195
X128.2Y-74.581
X128.2Y-75.966
X128.2Y-77.352
X128.2Y-78.738
X128.2Y-80.123
X128.2Y-81.509
X128.2Y-82.894
X128.2Y-84.28
X128.2Y-85.666
X128.2Y-87.051
X128.2Y-88.437
X128.2Y-89.822
X128.2Y-91.208
X128.2Y-92.594
X128.2Y-93.979
X128.2Y-95.365
X128.2Y-96.75
X128.2Y-98.136
X128.2Y-99.522
X128.2Y-100.907
X128.2Y-102.293
X128.2Y-103.678
X128.2Y-105.064
X128.2Y-106.45
X128.2Y-107.835
X128.2Y-109.221
X128.2Y-110.606
X128.2Y-111.992
X128.2Y-113.378
X128.2Y-114.763
X128.2Y-116.149
X128.2Y-117.534
X128.2Y-118.92
X128.2Y-120.306
X128.2Y-121.691
X128.2Y-123.077
X128.2Y-124.462
X128.2Y-125.848
X128.2Y-127.234
X128.2Y-128.619
X128.2Y-130.005
X128.2Y-131.39
X128.6Y-72.502
X128.6Y-73.888
X128.6Y-75.274
X128.6Y-76.659
X128.6Y-78.045
X128.6Y-79.43
X128.6Y-80.816
X128.6Y-82.202
X128.6Y-83.587
X128.6Y-84.973
X128.6Y-86.358
X128.6Y-87.744
X128.6Y-89.13
X128.6Y-90.515
X128.6Y-91.901
X128.6Y-93.286
X128.6Y-94.672
X128.6Y-96.058
X128.6Y-97.443
X128.6Y-98.829
X128.6Y-100.214
X128.6Y-101.6
X128.6Y-102.986
X128.6Y-104.371
X128.6Y-105.757
X128.6Y-107.142
X128.6Y-108.528
X128.6Y-109.914
X128.6Y-111.299
X128.6Y-112.685
X128.6Y-114.07
X128.6Y-115.456
X128.6Y-116.842
X128.6Y-118.227
X128.6Y-119.613
X128.6Y-120.998
X128.6Y-122.384
X128.6Y-123.77
X128.6Y-125.155
X128.6Y-126.541
X128.6Y-127.926
X128.6Y-129.312
X128.6Y-130.698
X129.0Y-71.81
X129.0Y-73.195
X129.0Y-74.581
X129.0Y-75.966
X129.0Y-77.352
X129.0Y-78.738
X129.0Y-80.123
X129.0Y-81.509
X129.0Y-82.894
X129.0Y-84.28
X129.0Y-85.666
X129.0Y-87.051
X129.0Y-88.437
X129.0Y-89.822
X129.0Y-91.208
X129.0Y-92.594
X129.0Y-93.979
X129.0Y-95.365
X129.0Y-96.75
X129.0Y-98.136
X129.0Y-99.522
X129.0Y-100.907
X129.0Y-102.293
X129.0Y-103.678
X129.0Y-105.064
X129.0Y-106.45
X129.0Y-107.835
X129.0Y-109.221
X129.0Y-110.606
X129.0Y-111.992
X129.0Y-113.378
X129.0Y-114.763
X129.0Y-116.149
X129.0Y-117.534
X129.0Y-118.92
X129.0Y-120.306
X129.0Y-121.691
X129.0Y-123.077
X129.0Y-124.462
X129.0Y-125.848
X129.0Y-127.234
X129.0Y-128.619
X129.0Y-130.005
X129.0Y-131.39
X129.4Y-72.502
X129.4Y-73.888
X129.4Y-75.274
X129.4Y-76.659
X129.4Y-78.045
X129.4Y-79.43
X129.4Y-80.816
X129.4Y-82.202
X129.4Y-83.587
X129.4Y-84.973
X129.4Y-86.358
X129.4Y-87.744
X129.4Y-89.13
X129.4Y-90.515
X129.4Y-91.901
X129.4Y-93.286
X129.4Y-94.672
X129.4Y-96.058
X129.4Y-97.443
X129.4Y-98.829
X129.4Y-100.214
X129.4Y-101.6
X129.4Y-102.986
X129.4Y-104.371
X129.4Y-105.757
X129.4Y-107.142
X129.4Y-108.528
X129.4Y-109.914
X129.4Y-111.299
X129.4Y-112.685
X129.4Y-114.07
X129.4Y-115.456
X129.4Y-116.842
X129.4Y-118.227
X129.4Y-119.613
X129.4Y-120.998
X129.4Y-122.384
X129.4Y-123.77
X129.4Y-125.155
X129.4Y-126.541
X129.4Y-127.926
X129.4Y-129.312
X129.4Y-130.698
X129.8Y-73.195
X129.8Y-74.581
X129.8Y-75.966
X129.8Y-77.352
X129.8Y-78.738
X129.8Y-80.123
X129.8Y-81.509
X129.8Y-82.894
X129.8Y-84.28
X129.8Y-85.666
X129.8Y-87.051
X129.8Y-88.437
X129.8Y-89.822
X129.8Y-91.208
X129.8Y-92.594
X129.8Y-93.979
X129.8Y-95.365
X129.8Y-96.75
X129.8Y-98.136
X129.8Y-99.522
X129.8Y-100.907
X129.8Y-102.293
X129.8Y-103.678
X129.8Y-105.064
X129.8Y-106.45
X129.8Y-107.835
X129.8Y-109.221
X129.8Y-110.606
X129.8Y-111.992
X129.8Y-113.378
X129.8Y-114.763
X129.8Y-116.149
X129.8Y-117.534
X129.8Y-118.92
X129.8Y-120.306
X129.8Y-121.691
X129.8Y-123.077
X129.8Y-124.462
X129.8Y-125.848
X129.8Y-127.234
X129.8Y-128.619
X129.8Y-130.005
X129.8Y-131.39
X130.2Y-72.502
X130.2Y-73.888
X130.2Y-75.274
X130.2Y-76.659
X130.2Y-78.045
X130.2Y-79.43
X130.2Y-80.816
X130.2Y-82.202
X130.2Y-83.587
X130.2Y-84.973
X130.2Y-86.358
X130.2Y-87.744
X130.2Y-89.13
X130.2Y-90.515
X130.2Y-91.901
X130.2Y-93.286
X130.2Y-94.672
X130.2Y-96.058
X130.2Y-97.443
X130.2Y-98.829
X130.2Y-100.214
X130.2Y-101.6
X130.2Y-102.986
X130.2Y-104.371
X130.2Y-105.757
X130.2Y-107.142
X130.2Y-108.528
X130.2Y-109.914
X130.2Y-111.299
X130.2Y-112.685
X130.2Y-114.07
X130.2Y-115.456
X130.2Y-116.842
X130.2Y-118.227
X130.2Y-119.613
X130.2Y-120.998
X130.2Y-122.384
X130.2Y-123.77
X130.2Y-125.155
X130.2Y-126.541
X130.2Y-127.926
X130.2Y-129.312
X130.2Y-130.698
X130.6Y-73.195
X130.6Y-74.581
X130.6Y-75.966
X130.6Y-77.352
X130.6Y-78.738
X130.6Y-80.123
X130.6Y-81.509
X130.6Y-82.894
X130.6Y-84.28
X130.6Y-85.666
X130.6Y-87.051
X130.6Y-88.437
X130.6Y-89.822
X130.6Y-91.208
X130.6Y-92.594
X130.6Y-93.979
X130.6Y-95.365
X130.6Y-96.75
X130.6Y-98.136
X130.6Y-99.522
X130.6Y-100.907
X130.6Y-102.293
X130.6Y-103.678
X130.6Y-105.064
X130.6Y-106.45
X130.6Y-107.835
X130.6Y-109.221
X130.6Y-110.606
X130.6Y-111.992
X130.6Y-113.378
X130.6Y-114.763
X130.6Y-116.149
X130.6Y-117.534
X130.6Y-118.92
X130.6Y-120.306
X130.6Y-121.691
X130.6Y-123.077
X130.6Y-124.462
X130.6Y-125.848
X130.6Y-127.234
X130.6Y-128.619
X130.6Y-130.005
X131.0Y-72.502
X131.0Y-73.888
X131.0Y-75.274
X131.0Y-76.659
X131.0Y-78.045
X131.0Y-79.43
X131.0Y-80.816
X131.0Y-82.202
X131.0Y-83.587
X131.0Y-84.973
X131.0Y-86.358
X131.0Y-87.744
X131.0Y-89.13
X131.0Y-90.515
X131.0Y-91.901
X131.0Y-93.286
X131.0Y-94.672
X131.0Y-96.058
X131.0Y-97.443
X131.0Y-98.829
X131.0Y-100.214
X131.0Y-101.6
X131.0Y-102.986
X131.0Y-104.371
X131.0Y-105.757
X131.0Y-107.142
X131.0Y-108.528
X131.0Y-109.914
X131.0Y-111.299
X131.0Y-112.685
X131.0Y-114.07
X131.0Y-115.456
X131.0Y-116.842
X131.0Y-118.227
X131.0Y-119.613
X131.0Y-120.998
X131.0Y-122.384
X131.0Y-123.77
X131.0Y-125.155
X131.0Y-126.541
X131.0Y-127.926
X131.0Y-129.312
X131.0Y-130.698
X131.4Y-73.195
X131.4Y-74.581
X131.4Y-75.966
X131.4Y-77.352
X131.4Y-78.738
X131.4Y-80.123
X131.4Y-81.509
X131.4Y-82.894
X131.4Y-84.28
X131.4Y-85.666
X131.4Y-87.051
X131.4Y-88.437
X131.4Y-89.822
X131.4Y-91.208
X131.4Y-92.594
X131.4Y-93.979
X131.4Y-95.365
X131.4Y-96.75
X131.4Y-98.136
X131.4Y-99.522
X131.4Y-100.907
X131.4Y-102.293
X131.4Y-103.678
X131.4Y-105.064
X131.4Y-106.45
X131.4Y-107.835
X131.4Y-109.221
X131.4Y-110.606
X131.4Y-111.992
X131.4Y-113.378
X131.4Y-114.763
X131.4Y-116.149
X131.4Y-117.534
X131.4Y-118.92
X131.4Y-120.306
X131.4Y-121.691
X131.4Y-123.077
X131.4Y-124.462
X131.4Y-125.848
X131.4Y-127.234
X131.4Y-128.619
X131.4Y-130.005
X131.8Y-72.502
X131.8Y-73.888
X131.8Y-75.274
X131.8Y-76.659
X131.8Y-78.045
X131.8Y-79.43
X131.8Y-80.816
X131.8Y-82.202
X131.8Y-83.587
X131.8Y-84.973
X131.8Y-86.358
X131.8Y-87.744
X131.8Y-89.13
X131.8Y-90.515
X131.8Y-91.901
X131.8Y-93.286
X131.8Y-94.672
X131.8Y-96.058
X131.8Y-97.443
X131.8Y-98.829
X131.8Y-100.214
X131.8Y-101.6
X131.8Y-102.986
X131.8Y-104.371
X131.8Y-105.757
X131.8Y-107.142
X131.8Y-108.528
X131.8Y-109.914
X131.8Y-111.299
X131.8Y-112.685
X131.8Y-114.07
X131.8Y-115.456
X131.8Y-116.842
X131.8Y-118.227
X131.8Y-119.613
X131.8Y-120.998
X131.8Y-122.384
X131.8Y-123.77
X131.8Y-125.155
X131.8Y-126.541
X131.8Y-127.926
X131.8Y-129.312
X131.8Y-130.698
X132.2Y-73.195
X132.2Y-74.581
X132.2Y-75.966
X132.2Y-77.352
X132.2Y-78.738
X132.2Y-80.123
X132.2Y-81.509
X132.2Y-82.894
X132.2Y-84.28
X132.2Y-85.666
X132.2Y-87.051
X132.2Y-88.437
X132.2Y-89.822
X132.2Y-91.208
X132.2Y-92.594
X132.2Y-93.979
X132.2Y-95.365
X132.2Y-96.75
X132.2Y-98.136
X132.2Y-99.522
X132.2Y-100.907
X132.2Y-102.293
X132.2Y-103.678
X132.2Y-105.064
X132.2Y-106.45
X132.2Y-107.835
X132.2Y-109.221
X132.2Y-110.606
X132.2Y-111.992
X132.2Y-113.378
X132.2Y-114.763
X132.2Y-116.149
X132.2Y-117.534
X132.2Y-118.92
X132.2Y-120.306
X132.2Y-121.691
X132.2Y-123.077
X132.2Y-124.462
X132.2Y-125.848
X132.2Y-127.234
X132.2Y-128.619
X132.2Y-130.005
X132.6Y-72.502
X132.6Y-73.888
X132.6Y-75.274
X132.6Y-76.659
X132.6Y-78.045
X132.6Y-79.43
X132.6Y-80.816
X132.6Y-82.202
X132.6Y-83.587
X132.6Y-84.973
X132.6Y-86.358
X132.6Y-87.744
X132.6Y-89.13
X132.6Y-90.515
X132.6Y-91.901
X132.6Y-93.286
X132.6Y-94.672
X132.6Y-96.058
X132.6Y-97.443
X132.6Y-98.829
X132.6Y-100.214
X132.6Y-101.6
X132.6Y-102.986
X132.6Y-104.371
X132.6Y-105.757
X132.6Y-107.142
X132.6Y-108.528
X132.6Y-109.914
X132.6Y-111.299
X132.6Y-112.685
X132.6Y-114.07
X132.6Y-115.456
X132.6Y-116.842
X132.6Y-118.227
X132.6Y-119.613
X132.6Y-120.998
X132.6Y-122.384
X132.6Y-123.77
X132.6Y-125.155
X132.6Y-126.541
X132.6Y-127.926
X132.6Y-129.312
X132.6Y-130.698
X133.0Y-73.195
X133.0Y-74.581
X133.0Y-75.966
X133.0Y-77.352
X133.0Y-78.738
X133.0Y-80.123
X133.0Y-81.509
X133.0Y-82.894
X133.0Y-84.28
X133.0Y-85.666
X133.0Y-87.051
X133.0Y-88.437
X133.0Y-89.822
X133.0Y-91.208
X133.0Y-92.594
X133.0Y-93.979
X133.0Y-95.365
X133.0Y-96.75
X133.0Y-98.136
X133.0Y-99.522
X133.0Y-100.907
X133.0Y-102.293
X133.0Y-103.678
X133.0Y-105.064
X133.0Y-106.45
X133.0Y-107.835
X133.0Y-109.221
X133.0Y-110.606
X133.0Y-111.992
X133.0Y-113.378
X133.0Y-114.763
X133.0Y-116.149
X133.0Y-117.534
X133.0Y-118.92
X133.0Y-120.306
X133.0Y-121.691
X133.0Y-123.077
X133.0Y-124.462
X133.0Y-125.848
X133.0Y-127.234
X133.0Y-128.619
X133.0Y-130.005
X133.4Y-72.502
X133.4Y-73.888
X133.4Y-75.274
X133.4Y-76.659
X133.4Y-78.045
X133.4Y-79.43
X133.4Y-80.816
X133.4Y-82.202
X133.4Y-83.587
X133.4Y-84.973
X133.4Y-86.358
X133.4Y-87.744
X133.4Y-89.13
X133.4Y-90.515
X133.4Y-91.901
X133.4Y-93.286
X133.4Y-94.672
X133.4Y-96.058
X133.4Y-97.443
X133.4Y-98.829
X133.4Y-100.214
X133.4Y-101.6
X133.4Y-102.986
X133.4Y-104.371
X133.4Y-105.757
X133.4Y-107.142
X133.4Y-108.528
X133.4Y-109.914
X133.4Y-111.299
X133.4Y-112.685
X133.4Y-114.07
X133.4Y-115.456
X133.4Y-116.842
X133.4Y-118.227
X133.4Y-119.613
X133.4Y-120.998
X133.4Y-122.384
X133.4Y-123.77
X133.4Y-125.155
X133.4Y-126.541
X133.4Y-127.926
X133.4Y-129.312
X133.4Y-130.698
X133.8Y-73.195
X133.8Y-74.581
X133.8Y-75.966
X133.8Y-77.352
X133.8Y-78.738
X133.8Y-80.123
X133.8Y-81.509
X133.8Y-82.894
X133.8Y-84.28
X133.8Y-85.666
X133.8Y-87.051
X133.8Y-88.437
X133.8Y-89.822
X133.8Y-91.208
X133.8Y-92.594
X133.8Y-93.979
X133.8Y-95.365
X133.8Y-96.75
X133.8Y-98.136
X133.8Y-99.522
X133.8Y-100.907
X133.8Y-102.293
X133.8Y-103.678
X133.8Y-105.064
X133.8Y-106.45
X133.8Y-107.835
X133.8Y-109.221
X133.8Y-110.606
X133.8Y-111.992
X133.8Y-113.378
X133.8Y-114.763
X133.8Y-116.149
X133.8Y-117.534
X133.8Y-118.92
X133.8Y-120.306
X133.8Y-121.691
X133.8Y-123.077
X133.8Y-124.462
X133.8Y-125.848
X133.8Y-127.234
X133.8Y-128.619
X133.8Y-130.005
X134.2Y-73.888
X134.2Y-75.274
X134.2Y-76.659
X134.2Y-78.045
X134.2Y-79.43
X134.2Y-80.816
X134.2Y-82.202
X134.2Y-83.587
X134.2Y-84.973
X134.2Y-86.358
X134.2Y-87.744
X134.2Y-89.13
X134.2Y-90.515
X134.2Y-91.901
X134.2Y-93.286
X134.2Y-94.672
X134.2Y-96.058
X134.2Y-97.443
X134.2Y-98.829
X134.2Y-100.214
X134.2Y-101.6
X134.2Y-102.986
X134.2Y-104.371
X134.2Y-105.757
X134.2Y-107.142
X134.2Y-108.528
X134.2Y-109.914
X134.2Y-111.299
X134.2Y-112.685
X134.2Y-114.07
X134.2Y-115.456
X134.2Y-116.842
X134.2Y-118.227
X134.2Y-119.613
X134.2Y-120.998
X134.2Y-122.384
X134.2Y-123.77
X134.2Y-125.155
X134.2Y-126.541
X134.2Y-127.926
X134.2Y-129.312
X134.6Y-73.195
X134.6Y-74.581
X134.6Y-75.966
X134.6Y-77.352
X134.6Y-78.738
X134.6Y-80.123
X134.6Y-81.509
X134.6Y-82.894
X134.6Y-84.28
X134.6Y-85.666
X134.6Y-87.051
X134.6Y-88.437
X134.6Y-89.822
X134.6Y-91.208
X134.6Y-92.594
X134.6Y-93.979
X134.6Y-95.365
X134.6Y-96.75
X134.6Y-98.136
X134.6Y-99.522
X134.6Y-100.907
X134.6Y-102.293
X134.6Y-103.678
X134.6Y-105.064
X134.6Y-106.45
X134.6Y-107.835
X134.6Y-109.221
X134.6Y-110.606
X134.6Y-111.992
X134.6Y-113.378
X134.6Y-114.763
X134.6Y-116.149
X134.6Y-117.534
X134.6Y-118.92
X134.6Y-120.306
X134.6Y-121.691
X134.6Y-123.077
X134.6Y-124.462
X134.6Y-125.848
X134.6Y-127.234
X134.6Y-128.619
X134.6Y-130.005
X135.0Y-73.888
X135.0Y-75.274
X135.0Y-76.659
X135.0Y-78.045
X135.0Y-79.43
X135.0Y-80.816
X135.0Y-82.202
X135.0Y-83.587
X135.0Y-84.973
X135.0Y-86.358
X135.0Y-87.744
X135.0Y-89.13
X135.0Y-90.515
X135.0Y-91.901
X135.0Y-93.286
X135.0Y-94.672
X135.0Y-96.058
X135.0Y-97.443
X135.0Y-98.829
X135.0Y-100.214
X135.0Y-101.6
X135.0Y-102.986
X135.0Y-104.371
X135.0Y-105.757
X135.0Y-107.142
X135.0Y-108.528
X135.0Y-109.914
X135.0Y-111.299
X135.0Y-112.685
X135.0Y-114.07
X135.0Y-115.456
X135.0Y-116.842
X135.0Y-118.227
X135.0Y-119.613
X135.0Y-120.998
X135.0Y-122.384
X135.0Y-123.77
X135.0Y-125.155
X135.0Y-126.541
X135.0Y-127.926
X135.0Y-129.312
X135.4Y-73.195
X135.4Y-74.581
X135.4Y-75.966
X135.4Y-77.352
X135.4Y-78.738
X135.4Y-80.123
X135.4Y-81.509
X135.4Y-82.894
X135.4Y-84.28
X135.4Y-85.666
X135.4Y-87.051
X135.4Y-88.437
X135.4Y-89.822
X135.4Y-91.208
X135.4Y-92.594
X135.4Y-93.979
X135.4Y-95.365
X135.4Y-96.75
X135.4Y-98.136
X135.4Y-99.522
X135.4Y-100.907
X135.4Y-102.293
X135.4Y-103.678
X135.4Y-105.064
X135.4Y-106.45
X135.4Y-107.835
X135.4Y-109.221
X135.4Y-110.606
X135.4Y-111.992
X135.4Y-113.378
X135.4Y-114.763
X135.4Y-116.149
X135.4Y-117.534
X135.4Y-118.92
X135.4Y-120.306
X135.4Y-121.691
X135.4Y-123.077
X135.4Y-124.462
X135.4Y-125.848
X135.4Y-127.234
X135.4Y-128.619
X135.4Y-130.005
X135.8Y-73.888
X135.8Y-75.274
X135.8Y-76.659
X135.8Y-78.045
X135.8Y-79.43
X135.8Y-80.816
X135.8Y-82.202
X135.8Y-83.587
X135.8Y-84.973
X135.8Y-86.358
X135.8Y-87.744
X135.8Y-89.13
X135.8Y-90.515
X135.8Y-91.901
X135.8Y-93.286
X135.8Y-94.672
X135.8Y-96.058
X135.8Y-97.443
X135.8Y-98.829
X135.8Y-100.214
X135.8Y-101.6
X135.8Y-102.986
X135.8Y-104.371
X135.8Y-105.757
X135.8Y-107.142
X135.8Y-108.528
X135.8Y-109.914
X135.8Y-111.299
X135.8Y-112.685
X135.8Y-114.07
X135.8Y-115.456
X135.8Y-116.842
X135.8Y-118.227
X135.8Y-119.613
X135.8Y-120.998
X135.8Y-122.384
X135.8Y-123.77
X135.8Y-125.155
X135.8Y-126.541
X135.8Y-127.926
X135.8Y-129.312
X136.2Y-73.195
X136.2Y-74.581
X136.2Y-75.966
X136.2Y-77.352
X136.2Y-78.738
X136.2Y-80.123
X136.2Y-81.509
X136.2Y-82.894
X136.2Y-84.28
X136.2Y-85.666
X136.2Y-87.051
X136.2Y-88.437
X136.2Y-89.822
X136.2Y-91.208
X136.2Y-92.594
X136.2Y-93.979
X136.2Y-95.365
X136.2Y-96.75
X136.2Y-98.136
X136.2Y-99.522
X136.2Y-100.907
X136.2Y-102.293
X136.2Y-103.678
X136.2Y-105.064
X136.2Y-106.45
X136.2Y-107.835
X136.2Y-109.221
X136.2Y-110.606
X136.2Y-111.992
X136.2Y-113.378
X136.2Y-114.763
X136.2Y-116.149
X136.2Y-117.534
X136.2Y-118.92
X136.2Y-120.306
X136.2Y-121.691
X136.2Y-123.077
X136.2Y-124.462
X136.2Y-125.848
X136.2Y-127.234
X136.2Y-128.619
X136.2Y-130.005
X136.6Y-73.888
X136.6Y-75.274
X136.6Y-76.659
X136.6Y-78.045
X136.6Y-79.43
X136.6Y-80.816
X136.6Y-82.202
X136.6Y-83.587
X136.6Y-84.973
X136.6Y-86.358
X136.6Y-87.744
X136.6Y-89.13
X136.6Y-90.515
X136.6Y-91.901
X136.6Y-93.286
X136.6Y-94.672
X136.6Y-96.058
X136.6Y-97.443
X136.6Y-98.829
X136.6Y-100.214
X136.6Y-101.6
X136.6Y-102.986
X136.6Y-104.371
X136.6Y-105.757
X136.6Y-107.142
X136.6Y-108.528
X136.6Y-109.914
X136.6Y-111.299
X136.6Y-112.685
X136.6Y-114.07
X136.6Y-115.456
X136.6Y-116.842
X136.6Y-118.227
X136.6Y-119.613
X136.6Y-120.998
X136.6Y-122.384
X136.6Y-123.77
X136.6Y-125.155
X136.6Y-126.541
X136.6Y-127.926
X136.6Y-129.312
X137.0Y-74.581
X137.0Y-75.966
X137.0Y-77.352
X137.0Y-78.738
X137.0Y-80.123
X137.0Y-81.509
X137.0Y-82.894
X137.0Y-84.28
X137.0Y-85.666
X137.0Y-87.051
X137.0Y-88.437
X137.0Y-89.822
X137.0Y-91.208
X137.0Y-92.594
X137.0Y-93.979
X137.0Y-95.365
X137.0Y-96.75
X137.0Y-98.136
X137.0Y-99.522
X137.0Y-100.907
X137.0Y-102.293
X137.0Y-103.678
X137.0Y-105.064
X137.0Y-106.45
X137.0Y-107.835
X137.0Y-109.221
X137.0Y-110.606
X137.0Y-111.992
X137.0Y-113.378
X137.0Y-114.763
X137.0Y-116.149
X137.0Y-117.534
X137.0Y-118.92
X137.0Y-120.306
X137.0Y-121.691
X137.0Y-123.077
X137.0Y-124.462
X137.0Y-125.848
X137.0Y-127.234
X137.0Y-128.619
X137.4Y-73.888
X137.4Y-75.274
X137.4Y-76.659
X137.4Y-78.045
X137.4Y-79.43
X137.4Y-80.816
X137.4Y-82.202
X137.4Y-83.587
X137.4Y-84.973
X137.4Y-86.358
X137.4Y-87.744
X137.4Y-89.13
X137.4Y-90.515
X137.4Y-91.901
X137.4Y-93.286
X137.4Y-94.672
X137.4Y-96.058
X137.4Y-97.443
X137.4Y-98.829
X137.4Y-100.214
X137.4Y-101.6
X137.4Y-102.986
X137.4Y-104.371
X137.4Y-105.757
X137.4Y-107.142
X137.4Y-108.528
X137.4Y-109.914
X137.4Y-111.299
X137.4Y-112.685
X137.4Y-114.07
X137.4Y-115.456
X137.4Y-116.842
X137.4Y-118.227
X137.4Y-119.613
X137.4Y-120.998
X137.4Y-122.384
X137.4Y-123.77
X137.4Y-125.155
X137.4Y-126.541
X137.4Y-127.926
X137.4Y-129.312
X137.8Y-74.581
X137.8Y-75.966
X137.8Y-77.352
X137.8Y-78.738
X137.8Y-80.123
X137.8Y-81.509
X137.8Y-82.894
X137.8Y-84.28
X137.8Y-85.666
X137.8Y-87.051
X137.8Y-88.437
X137.8Y-89.822
X137.8Y-91.208
X137.8Y-92.594
X137.8Y-93.979
X137.8Y-95.365
X137.8Y-96.75
X137.8Y-98.136
X137.8Y-99.522
X137.8Y-100.907
X137.8Y-102.293
X137.8Y-103.678
X137.8Y-105.064
X137.8Y-106.45
X137.8Y-107.835
X137.8Y-109.221
X137.8Y-110.606
X137.8Y-111.992
X137.8Y-113.378
X137.8Y-114.763
X137.8Y-116.149
X137.8Y-117.534
X137.8Y-118.92
X137.8Y-120.306
X137.8Y-121.691
X137.8Y-123.077
X137.8Y-124.462
X137.8Y-125.848
X137.8Y-127.234
X137.8Y-128.619
X138.2Y-73.888
X138.2Y-75.274
X138.2Y-76.659
X138.2Y-78.045
X138.2Y-79.43
X138.2Y-80.816
X138.2Y-82.202
X138.2Y-83.587
X138.2Y-84.973
X138.2Y-86.358
X138.2Y-87.744
X138.2Y-89.13
X138.2Y-90.515
X138.2Y-91.901
X138.2Y-93.286
X138.2Y-94.672
X138.2Y-96.058
X138.2Y-97.443
X138.2Y-98.829
X138.2Y-100.214
X138.2Y-101.6
X138.2Y-102.986
X138.2Y-104.371
X138.2Y-105.757
X138.2Y-107.142
X138.2Y-108.528
X138.2Y-109.914
X138.2Y-111.299
X138.2Y-112.685
X138.2Y-114.07
X138.2Y-115.456
X138.2Y-116.842
X138.2Y-118.227
X138.2Y-119.613
X138.2Y-120.998
X138.2Y-122.384
X138.2Y-123.77
X138.2Y-125.155
X138.2Y-126.541
X138.2Y-127.926
X138.2Y-129.312
X138.6Y-74.581
X138.6Y-75.966
X138.6Y-77.352
X138.6Y-78.738
X138.6Y-80.123
X138.6Y-81.509
X138.6Y-82.894
X138.6Y-84.28
X138.6Y-85.666
X138.6Y-87.051
X138.6Y-88.437
X138.6Y-89.822
X138.6Y-91.208
X138.6Y-92.594
X138.6Y-93.979
X138.6Y-95.365
X138.6Y-96.75
X138.6Y-98.136
X138.6Y-99.522
X138.6Y-100.907
X138.6Y-102.293
X138.6Y-103.678
X138.6Y-105.064
X138.6Y-106.45
X138.6Y-107.835
X138.6Y-109.221
X138.6Y-110.606
X138.6Y-111.992
X138.6Y-113.378
X138.6Y-114.763
X138.6Y-116.149
X138.6Y-117.534
X138.6Y-118.92
X138.6Y-120.306
X138.6Y-121.691
X138.6Y-123.077
X138.6Y-124.462
X138.6Y-125.848
X138.6Y-127.234
X138.6Y-128.619
X139.0Y-75.274
X139.0Y-76.659
X139.0Y-78.045
X139.0Y-79.43
X139.0Y-80.816
X139.0Y-82.202
X139.0Y-83.587
X139.0Y-84.973
X139.0Y-86.358
X139.0Y-87.744
X139.0Y-89.13
X139.0Y-90.515
X139.0Y-91.901
X139.0Y-93.286
X139.0Y-94.672
X139.0Y-96.058
X139.0Y-97.443
X139.0Y-98.829
X139.0Y-100.214
X139.0Y-101.6
X139.0Y-102.986
X139.0Y-104.371
X139.0Y-105.757
X139.0Y-107.142
X139.0Y-108.528
X139.0Y-109.914
X139.0Y-111.299
X139.0Y-112.685
X139.0Y-114.07
X139.0Y-115.456
X139.0Y-116.842
X139.0Y-118.227
X139.0Y-119.613
X139.0Y-120.998
X139.0Y-122.384
X139.0Y-123.77
X139.0Y-125.155
X139.0Y-126.541
X139.0Y-127.926
X139.4Y-74.581
X139.4Y-75.966
X139.4Y-77.352
X139.4Y-78.738
X139.4Y-80.123
X139.4Y-81.509
X139.4Y-82.894
X139.4Y-84.28
X139.4Y-85.666
X139.4Y-87.051
X139.4Y-88.437
X139.4Y-89.822
X139.4Y-91.208
X139.4Y-92.594
X139.4Y-93.979
X139.4Y-95.365
X139.4Y-96.75
X139.4Y-98.136
X139.4Y-99.522
X139.4Y-100.907
X139.4Y-102.293
X139.4Y-103.678
X139.4Y-105.064
X139.4Y-106.45
X139.4Y-107.835
X139.4Y-109.221
X139.4Y-110.606
X139.4Y-111.992
X139.4Y-113.378
X139.4Y-114.763
X139.4Y-116.149
X139.4Y-117.534
X139.4Y-118.92
X139.4Y-120.306
X139.4Y-121.691
X139.4Y-123.077
X139.4Y-124.462
X139.4Y-125.848
X139.4Y-127.234
X139.4Y-128.619
X139.8Y-75.274
X139.8Y-76.659
X139.8Y-78.045
X139.8Y-79.43
X139.8Y-80.816
X139.8Y-82.202
X139.8Y-83.587
X139.8Y-84.973
X139.8Y-86.358
X139.8Y-87.744
X139.8Y-89.13
X139.8Y-90.515
X139.8Y-91.901
X139.8Y-93.286
X139.8Y-94.672
X139.8Y-96.058
X139.8Y-97.443
X139.8Y-98.829
X139.8Y-100.214
X139.8Y-101.6
X139.8Y-102.986
X139.8Y-104.371
X139.8Y-105.757
X139.8Y-107.142
X139.8Y-108.528
X139.8Y-109.914
X139.8Y-111.299
X139.8Y-112.685
X139.8Y-114.07
X139.8Y-115.456
X139.8Y-116.842
X139.8Y-118.227
X139.8Y-119.613
X139.8Y-120.998
X139.8Y-122.384
X139.8Y-123.77
X139.8Y-125.155
X139.8Y-126.541
X139.8Y-127.926
X140.2Y-75.966
X140.2Y-77.352
X140.2Y-78.738
X140.2Y-80.123
X140.2Y-81.509
X140.2Y-82.894
X140.2Y-84.28
X140.2Y-85.666
X140.2Y-87.051
X140.2Y-88.437
X140.2Y-89.822
X140.2Y-91.208
X140.2Y-92.594
X140.2Y-93.979
X140.2Y-95.365
X140.2Y-96.75
X140.2Y-98.136
X140.2Y-99.522
X140.2Y-100.907
X140.2Y-102.293
X140.2Y-103.678
X140.2Y-105.064
X140.2Y-106.45
X140.2Y-107.835
X140.2Y-109.221
X140.2Y-110.606
X140.2Y-111.992
X140.2Y-113.378
X140.2Y-114.763
X140.2Y-116.149
X140.2Y-117.534
X140.2Y-118.92
X140.2Y-120.306
X140.2Y-121.691
X140.2Y-123.077
X140.2Y-124.462
X140.2Y-125.848
X140.2Y-127.234
X140.6Y-75.274
X140.6Y-76.659
X140.6Y-78.045
X140.6Y-79.43
X140.6Y-80.816
X140.6Y-82.202
X140.6Y-83.587
X140.6Y-84.973
X140.6Y-86.358
X140.6Y-87.744
X140.6Y-89.13
X140.6Y-90.515
X140.6Y-91.901
X140.6Y-93.286
X140.6Y-94.672
X140.6Y-96.058
X140.6Y-97.443
X140.6Y-98.829
X140.6Y-100.214
X140.6Y-101.6
X140.6Y-102.986
X140.6Y-104.371
X140.6Y-105.757
X140.6Y-107.142
X140.6Y-108.528
X140.6Y-109.914
X140.6Y-111.299
X140.6Y-112.685
X140.6Y-114.07
X140.6Y-115.456
X140.6Y-116.842
X140.6Y-118.227
X140.6Y-119.613
X140.6Y-120.998
X140.6Y-122.384
X140.6Y-123.77
X140.6Y-125.155
X140.6Y-126.541
X140.6Y-127.926
X141.0Y-75.966
X141.0Y-77.352
X141.0Y-78.738
X141.0Y-80.123
X141.0Y-81.509
X141.0Y-82.894
X141.0Y-84.28
X141.0Y-85.666
X141.0Y-87.051
X141.0Y-88.437
X141.0Y-89.822
X141.0Y-91.208
X141.0Y-92.594
X141.0Y-93.979
X141.0Y-95.365
X141.0Y-96.75
X141.0Y-98.136
X141.0Y-99.522
X141.0Y-100.907
X141.0Y-102.293
X141.0Y-103.678
X141.0Y-105.064
X141.0Y-106.45
X141.0Y-107.835
X141.0Y-109.221
X141.0Y-110.606
X141.0Y-111.992
X141.0Y-113.378
X141.0Y-114.763
X141.0Y-116.149
X141.0Y-117.534
X141.0Y-118.92
X141.0Y-120.306
X141.0Y-121.691
X141.0Y-123.077
X141.0Y-124.462
X141.0Y-125.848
X141.0Y-127.234
X141.4Y-76.659
X141.4Y-78.045
X141.4Y-79.43
X141.4Y-80.816
X141.4Y-82.202
X141.4Y-83.587
X141.4Y-84.973
X141.4Y-86.358
X141.4Y-87.744
X141.4Y-89.13
X141.4Y-90.515
X141.4Y-91.901
X141.4Y-93.286
X141.4Y-94.672
X141.4Y-96.058
X141.4Y-97.443
X141.4Y-98.829
X141.4Y-100.214
X141.4Y-101.6
X141.4Y-102.986
X141.4Y-104.371
X141.4Y-105.757
X141.4Y-107.142
X141.4Y-108.528
X141.4Y-109.914
X141.4Y-111.299
X141.4Y-112.685
X141.4Y-114.07
X141.4Y-115.456
X141.4Y-116.842
X141.4Y-118.227
X141.4Y-119.613
X141.4Y-120.998
X141.4Y-122.384
X141.4Y-123.77
X141.4Y-125.155
X141.4Y-126.541
X141.8Y-75.966
X141.8Y-77.352
X141.8Y-78.738
X141.8Y-80.123
X141.8Y-81.509
X141.8Y-82.894
X141.8Y-84.28
X141.8Y-85.666
X141.8Y-87.051
X141.8Y-88.437
X141.8Y-89.822
X141.8Y-91.208
X141.8Y-92.594
X141.8Y-93.979
X141.8Y-95.365
X141.8Y-96.75
X141.8Y-98.136
X141.8Y-99.522
X141.8Y-100.907
X141.8Y-102.293
X141.8Y-103.678
X141.8Y-105.064
X141.8Y-106.45
X141.8Y-107.835
X141.8Y-109.221
X141.8Y-110.606
X141.8Y-111.992
X141.8Y-113.378
X141.8Y-114.763
X141.8Y-116.149
X141.8Y-117.534
X141.8Y-118.92
X141.8Y-120.306
X141.8Y-121.691
X141.8Y-123.077
X141.8Y-124.462
X141.8Y-125.848
X141.8Y-127.234
X142.2Y-76.659
X142.2Y-78.045
X142.2Y-79.43
X142.2Y-80.816
X142.2Y-82.202
X142.2Y-83.587
X142.2Y-84.973
X142.2Y-86.358
X142.2Y-87.744
X142.2Y-89.13
X142.2Y-90.515
X142.2Y-91.901
X142.2Y-93.286
X142.2Y-94.672
X142.2Y-96.058
X142.2Y-97.443
X142.2Y-98.829
X142.2Y-100.214
X142.2Y-101.6
X142.2Y-102.986
X142.2Y-104.371
X142.2Y-105.757
X142.2Y-107.142
X142.2Y-108.528
X142.2Y-109.914
X142.2Y-111.299
X142.2Y-112.685
X142.2Y-114.07
X142.2Y-115.456
X142.2Y-116.842
X142.2Y-118.227
X142.2Y-119.613
X142.2Y-120.998
X142.2Y-122.384
X142.2Y-123.77
X142.2Y-125.155
X142.2Y-126.541
X142.6Y-77.352
X142.6Y-78.738
X142.6Y-80.123
X142.6Y-81.509
X142.6Y-82.894
X142.6Y-84.28
X142.6Y-85.666
X142.6Y-87.051
X142.6Y-88.437
X142.6Y-89.822
X142.6Y-91.208
X142.6Y-92.594
X142.6Y-93.979
X142.6Y-95.365
X142.6Y-96.75
X142.6Y-98.136
X142.6Y-99.522
X142.6Y-100.907
X142.6Y-102.293
X142.6Y-103.678
X142.6Y-105.064
X142.6Y-106.45
X142.6Y-107.835
X142.6Y-109.221
X142.6Y-110.606
X142.6Y-111.992
X142.6Y-113.378
X142.6Y-114.763
X142.6Y-116.149
X142.6Y-117.534
X142.6Y-118.92
X142.6Y-120.306
X142.6Y-121.691
X142.6Y-123.077
X142.6Y-124.462
X142.6Y-125.848
X143.0Y-76.659
X143.0Y-78.045
X143.0Y-79.43
X143.0Y-80.816
X143.0Y-82.202
X143.0Y-83.587
X143.0Y-84.973
X143.0Y-86.358
X143.0Y-87.744
X143.0Y-89.13
X143.0Y-90.515
X143.0Y-91.901
X143.0Y-93.286
X143.0Y-94.672
X143.0Y-96.058
X143.0Y-97.443
X143.0Y-98.829
X143.0Y-100.214
X143.0Y-101.6
X143.0Y-102.986
X143.0Y-104.371
X143.0Y-105.757
X143.0Y-107.142
X143.0Y-108.528
X143.0Y-109.914
X143.0Y-111.299
X143.0Y-112.685
X143.0Y-114.07
X143.0Y-115.456
X143.0Y-116.842
X143.0Y-118.227
X143.0Y-119.613
X143.0Y-120.998
X143.0Y-122.384
X143.0Y-123.77
X143.0Y-125.155
X143.0Y-126.541
X143.4Y-77.352
X143.4Y-78.738
X143.4Y-80.123
X143.4Y-81.509
X143.4Y-82.894
X143.4Y-84.28
X143.4Y-85.666
X143.4Y-87.051
X143.4Y-88.437
X143.4Y-89.822
X143.4Y-91.208
X143.4Y-92.594
X143.4Y-93.979
X143.4Y-95.365
X143.4Y-96.75
X143.4Y-98.136
X143.4Y-99.522
X143.4Y-100.907
X143.4Y-102.293
X143.4Y-103.678
X143.4Y-105.064
X143.4Y-106.45
X143.4Y-107.835
X143.4Y-109.221
X143.4Y-110.606
X143.4Y-111.992
X143.4Y-113.378
X143.4Y-114.763
X143.4Y-116.149
X143.4Y-117.534
X143.4Y-118.92
X143.4Y-120.306
X143.4Y-121.691
X143.4Y-123.077
X143.4Y-124.462
X143.4Y-125.848
X143.8Y-78.045
X143.8Y-79.43
X143.8Y-80.816
X143.8Y-82.202
X143.8Y-83.587
X143.8Y-84.973
X143.8Y-86.358
X143.8Y-87.744
X143.8Y-89.13
X143.8Y-90.515
X143.8Y-91.901
X143.8Y-93.286
X143.8Y-94.672
X143.8Y-96.058
X143.8Y-97.443
X143.8Y-98.829
X143.8Y-100.214
X143.8Y-101.6
X143.8Y-102.986
X143.8Y-104.371
X143.8Y-105.757
X143.8Y-107.142
X143.8Y-108.528
X143.8Y-109.914
X143.8Y-111.299
X143.8Y-112.685
X143.8Y-114.07
X143.8Y-115.456
X143.8Y-116.842
X143.8Y-118.227
X143.8Y-119.613
X143.8Y-120.998
X143.8Y-122.384
X143.8Y-123.77
X143.8Y-125.155
X144.2Y-77.352
X144.2Y-78.738
X144.2Y-80.123
X144.2Y-81.509
X144.2Y-82.894
X144.2Y-84.28
X144.2Y-85.666
X144.2Y-87.051
X144.2Y-88.437
X144.2Y-89.822
X144.2Y-91.208
X144.2Y-92.594
X144.2Y-93.979
X144.2Y-95.365
X144.2Y-96.75
X144.2Y-98.136
X144.2Y-99.522
X144.2Y-100.907
X144.2Y-102.293
X144.2Y-103.678
X144.2Y-105.064
X144.2Y-106.45
X144.2Y-107.835
X144.2Y-109.221
X144.2Y-110.606
X144.2Y-111.992
X144.2Y-113.378
X144.2Y-114.763
X144.2Y-116.149
X144.2Y-117.534
X144.2Y-118.92
X144.2Y-120.306
X144.2Y-121.691
X144.2Y-123.077
X144.2Y-124.462
X144.2Y-125.848
X144.6Y-78.045
X144.6Y-79.43
X144.6Y-80.816
X144.6Y-82.202
X144.6Y-83.587
X144.6Y-84.973
X144.6Y-86.358
X144.6Y-87.744
X144.6Y-89.13
X144.6Y-90.515
X144.6Y-91.901
X144.6Y-93.286
X144.6Y-94.672
X144.6Y-96.058
X144.6Y-97.443
X144.6Y-98.829
X144.6Y-100.214
X144.6Y-101.6
X144.6Y-102.986
X144.6Y-104.371
X144.6Y-105.757
X144.6Y-107.142
X144.6Y-108.528
X144.6Y-109.914
X144.6Y-111.299
X144.6Y-112.685
X144.6Y-114.07
X144.6Y-115.456
X144.6Y-116.842
X144.6Y-118.227
X144.6Y-119.613
X144.6Y-120.998
X144.6Y-122.384
X144.6Y-123.77
X144.6Y-125.155
X145.0Y-78.738
X145.0Y-80.123
X145.0Y-81.509
X145.0Y-82.894
X145.0Y-84.28
X145.0Y-85.666
X145.0Y-87.051
X145.0Y-88.437
X145.0Y-89.822
X145.0Y-91.208
X145.0Y-92.594
X145.0Y-93.979
X145.0Y-95.365
X145.0Y-96.75
X145.0Y-98.136
X145.0Y-99.522
X145.0Y-100.907
X145.0Y-102.293
X145.0Y-103.678
X145.0Y-105.064
X145.0Y-106.45
X145.0Y-107.835
X145.0Y-109.221
X145.0Y-110.606
X145.0Y-111.992
X145.0Y-113.378
X145.0Y-114.763
X145.0Y-116.149
X145.0Y-117.534
X145.0Y-118.92
X145.0Y-120.306
X145.0Y-121.691
X145.0Y-123.077
X145.0Y-124.462
X145.4Y-78.045
X145.4Y-79.43
X145.4Y-80.816
X145.4Y-82.202
X145.4Y-83.587
X145.4Y-84.973
X145.4Y-86.358
X145.4Y-87.744
X145.4Y-89.13
X145.4Y-90.515
X145.4Y-91.901
X145.4Y-93.286
X145.4Y-94.672
X145.4Y-96.058
X145.4Y-97.443
X145.4Y-98.829
X145.4Y-100.214
X145.4Y-101.6
X145.4Y-102.986
X145.4Y-104.371
X145.4Y-105.757
X145.4Y-107.142
X145.4Y-108.528
X145.4Y-109.914
X145.4Y-111.299
X145.4Y-112.685
X145.4Y-114.07
X145.4Y-115.456
X145.4Y-116.842
X145.4Y-118.227
X145.4Y-119.613
X145.4Y-120.998
X145.4Y-122.384
X145.4Y-123.77
X145.4Y-125.155
X145.8Y-78.738
X145.8Y-80.123
X145.8Y-81.509
X145.8Y-82.894
X145.8Y-84.28
X145.8Y-85.666
X145.8Y-87.051
X145.8Y-88.437
X145.8Y-89.822
X145.8Y-91.208
X145.8Y-92.594
X145.8Y-93.979
X145.8Y-95.365
X145.8Y-96.75
X145.8Y-98.136
X145.8Y-99.522
X145.8Y-100.907
X145.8Y-102.293
X145.8Y-103.678
X145.8Y-105.064
X145.8Y-106.45
X145.8Y-107.835
X145.8Y-109.221
X145.8Y-110.606
X145.8Y-111.992
X145.8Y-113.378
X145.8Y-114.763
X145.8Y-116.149
X145.8Y-117.534
X145.8Y-118.92
X145.8Y-120.306
X145.8Y-121.691
X145.8Y-123.077
X145.8Y-124.462
X146.2Y-79.43
X146.2Y-80.816
X146.2Y-82.202
X146.2Y-83.587
X146.2Y-84.973
X146.2Y-86.358
X146.2Y-87.744
X146.2Y-89.13
X146.2Y-90.515
X146.2Y-91.901
X146.2Y-93.286
X146.2Y-94.672
X146.2Y-96.058
X146.2Y-97.443
X146.2Y-98.829
X146.2Y-100.214
X146.2Y-101.6
X146.2Y-102.986
X146.2Y-104.371
X146.2Y-105.757
X146.2Y-107.142
X146.2Y-108.528
X146.2Y-109.914
X146.2Y-111.299
X146.2Y-112.685
X146.2Y-114.07
X146.2Y-115.456
X146.2Y-116.842
X146.2Y-118.227
X146.2Y-119.613
X146.2Y-120.998
X146.2Y-122.384
X146.2Y-123.77
X146.6Y-80.123
X146.6Y-81.509
X146.6Y-82.894
X146.6Y-84.28
X146.6Y-85.666
X146.6Y-87.051
X146.6Y-88.437
X146.6Y-89.822
X146.6Y-91.208
X146.6Y-92.594
X146.6Y-93.979
X146.6Y-95.365
X146.6Y-96.75
X146.6Y-98.136
X146.6Y-99.522
X146.6Y-100.907
X146.6Y-102.293
X146.6Y-103.678
X146.6Y-105.064
X146.6Y-106.45
X146.6Y-107.835
X146.6Y-109.221
X146.6Y-110.606
X146.6Y-111.992
X146.6Y-113.378
X146.6Y-114.763
X146.6Y-116.149
X146.6Y-117.534
X146.6Y-118.92
X146.6Y-120.306
X146.6Y-121.691
X146.6Y-123.077
X147.0Y-79.43
X147.0Y-80.816
X147.0Y-82.202
X147.0Y-83.587
X147.0Y-84.973
X147.0Y-86.358
X147.0Y-87.744
X147.0Y-89.13
X147.0Y-90.515
X147.0Y-91.901
X147.0Y-93.286
X147.0Y-94.672
X147.0Y-96.058
X147.0Y-97.443
X147.0Y-98.829
X147.0Y-100.214
X147.0Y-101.6
X147.0Y-102.986
X147.0Y-104.371
X147.0Y-105.757
X147.0Y-107.142
X147.0Y-108.528
X147.0Y-109.914
X147.0Y-111.299
X147.0Y-112.685
X147.0Y-114.07
X147.0Y-115.456
X147.0Y-116.842
X147.0Y-118.227
X147.0Y-119.613
X147.0Y-120.998
X147.0Y-122.384
X147.0Y-123.77
X147.4Y-80.123
X147.4Y-81.509
X147.4Y-82.894
X147.4Y-84.28
X147.4Y-85.666
X147.4Y-87.051
X147.4Y-88.437
X147.4Y-89.822
X147.4Y-91.208
X147.4Y-92.594
X147.4Y-93.979
X147.4Y-95.365
X147.4Y-96.75
X147.4Y-98.136
X147.4Y-99.522
X147.4Y-100.907
X147.4Y-102.293
X147.4Y-103.678
X147.4Y-105.064
X147.4Y-106.45
X147.4Y-107.835
X147.4Y-109.221
X147.4Y-110.606
X147.4Y-111.992
X147.4Y-113.378
X147.4Y-114.763
X147.4Y-116.149
X147.4Y-117.534
X147.4Y-118.92
X147.4Y-120.306
X147.4Y-121.691
X147.4Y-123.077
X147.8Y-80.816
X147.8Y-82.202
X147.8Y-83.587
X147.8Y-84.973
X147.8Y-86.358
X147.8Y-87.744
X147.8Y-89.13
X147.8Y-90.515
X147.8Y-91.901
X147.8Y-93.286
X147.8Y-94.672
X147.8Y-96.058
X147.8Y-97.443
X147.8Y-98.829
X147.8Y-100.214
X147.8Y-101.6
X147.8Y-102.986
X147.8Y-104.371
X147.8Y-105.757
X147.8Y-107.142
X147.8Y-108.528
X147.8Y-109.914
X147.8Y-111.299
X147.8Y-112.685
X147.8Y-114.07
X147.8Y-115.456
X147.8Y-116.842
X147.8Y-118.227
X147.8Y-119.613
X147.8Y-120.998
X147.8Y-122.384
X148.2Y-81.509
X148.2Y-82.894
X148.2Y-84.28
X148.2Y-85.666
X148.2Y-87.051
X148.2Y-88.437
X148.2Y-89.822
X148.2Y-91.208
X148.2Y-92.594
X148.2Y-93.979
X148.2Y-95.365
X148.2Y-96.75
X148.2Y-98.136
X148.2Y-99.522
X148.2Y-100.907
X148.2Y-102.293
X148.2Y-103.678
X148.2Y-105.064
X148.2Y-106.45
X148.2Y-107.835
X148.2Y-109.221
X148.2Y-110.606
X148.2Y-111.992
X148.2Y-113.378
X148.2Y-114.763
X148.2Y-116.149
X148.2Y-117.534
X148.2Y-118.92
X148.2Y-120.306
X148.2Y-121.691
X148.6Y-82.202
X148.6Y-83.587
X148.6Y-84.973
X148.6Y-86.358
X148.6Y-87.744
X148.6Y-89.13
X148.6Y-90.515
X148.6Y-91.901
X148.6Y-93.286
X148.6Y-94.672
X148.6Y-96.058
X148.6Y-97.443
X148.6Y-98.829
X148.6Y-100.214
X148.6Y-101.6
X148.6Y-102.986
X148.6Y-104.371
X148.6Y-105.757
X148.6Y-107.142
X148.6Y-108.528
X148.6Y-109.914
X148.6Y-111.299
X148.6Y-112.685
X148.6Y-114.07
X148.6Y-115.456
X148.6Y-116.842
X148.6Y-118.227
X148.6Y-119.613
X148.6Y-120.998
X149.0Y-81.509
X149.0Y-82.894
X149.0Y-84.28
X149.0Y-85.666
X149.0Y-87.051
X149.0Y-88.437
X149.0Y-89.822
X149.0Y-91.208
X149.0Y-92.594
X149.0Y-93.979
X149.0Y-95.365
X149.0Y-96.75
X149.0Y-98.136
X149.0Y-99.522
X149.0Y-100.907
X149.0Y-102.293
X149.0Y-103.678
X149.0Y-105.064
X149.0Y-106.45
X149.0Y-107.835
X149.0Y-109.221
X149.0Y-110.606
X149.0Y-111.992
X149.0Y-113.378
X149.0Y-114.763
X149.0Y-116.149
X149.0Y-117.534
X149.0Y-118.92
X149.0Y-120.306
X149.0Y-121.691
X149.4Y-82.202
X149.4Y-83.587
X149.4Y-84.973
X149.4Y-86.358
X149.4Y-87.744
X149.4Y-89.13
X149.4Y-90.515
X149.4Y-91.901
X149.4Y-93.286
X149.4Y-94.672
X149.4Y-96.058
X149.4Y-97.443
X149.4Y-98.829
X149.4Y-100.214
X149.4Y-101.6
X149.4Y-102.986
X149.4Y-104.371
X149.4Y-105.757
X149.4Y-107.142
X149.4Y-108.528
X149.4Y-109.914
X149.4Y-111.299
X149.4Y-112.685
X149.4Y-114.07
X149.4Y-115.456
X149.4Y-116.842
X149.4Y-118.227
X149.4Y-119.613
X149.4Y-120.998
X149.8Y-82.894
X149.8Y-84.28
X149.8Y-85.666
X149.8Y-87.051
X149.8Y-88.437
X149.8Y-89.822
X149.8Y-91.208
X149.8Y-92.594
X149.8Y-93.979
X149.8Y-95.365
X149.8Y-96.75
X149.8Y-98.136
X149.8Y-99.522
X149.8Y-100.907
X149.8Y-102.293
X149.8Y-103.678
X149.8Y-105.064
X149.8Y-106.45
X149.8Y-107.835
X149.8Y-109.221
X149.8Y-110.606
X149.8Y-111.992
X149.8Y-113.378
X149.8Y-114.763
X149.8Y-116.149
X149.8Y-117.534
X149.8Y-118.92
X149.8Y-120.306
X150.2Y-83.587
X150.2Y-84.973
X150.2Y-86.358
X150.2Y-87.744
X150.2Y-89.13
X150.2Y-90.515
X150.2Y-91.901
X150.2Y-93.286
X150.2Y-94.672
X150.2Y-96.058
X150.2Y-97.443
X150.2Y-98.829
X150.2Y-100.214
X150.2Y-101.6
X150.2Y-102.986
X150.2Y-104.371
X150.2Y-105.757
X150.2Y-107.142
X150.2Y-108.528
X150.2Y-109.914
X150.2Y-111.299
X150.2Y-112.685
X150.2Y-114.07
X150.2Y-115.456
X150.2Y-116.842
X150.2Y-118.227
X150.2Y-119.613
X150.6Y-84.28
X150.6Y-85.666
X150.6Y-87.051
X150.6Y-88.437
X150.6Y-89.822
X150.6Y-91.208
X150.6Y-92.594
X150.6Y-93.979
X150.6Y-95.365
X150.6Y-96.75
X150.6Y-98.136
X150.6Y-99.522
X150.6Y-100.907
X150.6Y-102.293
X150.6Y-103.678
X150.6Y-105.064
X150.6Y-106.45
X150.6Y-107.835
X150.6Y-109.221
X150.6Y-110.606
X150.6Y-111.992
X150.6Y-113.378
X150.6Y-114.763
X150.6Y-116.149
X150.6Y-117.534
X150.6Y-118.92
X151.0Y-84.973
X151.0Y-86.358
X151.0Y-87.744
X151.0Y-89.13
X151.0Y-90.515
X151.0Y-91.901
X151.0Y-93.286
X151.0Y-94.672
X151.0Y-96.058
X151.0Y-97.443
X151.0Y-98.829
X151.0Y-100.214
X151.0Y-101.6
X151.0Y-102.986
X151.0Y-104.371
X151.0Y-105.757
X151.0Y-107.142
X151.0Y-108.528
X151.0Y-109.914
X151.0Y-111.299
X151.0Y-112.685
X151.0Y-114.07
X151.0Y-115.456
X151.0Y-116.842
X151.0Y-118.227
X151.4Y-84.28
X151.4Y-85.666
X151.4Y-87.051
X151.4Y-88.437
X151.4Y-89.822
X151.4Y-91.208
X151.4Y-92.594
X151.4Y-93.979
X151.4Y-95.365
X151.4Y-96.75
X151.4Y-98.136
X151.4Y-99.522
X151.4Y-100.907
X151.4Y-102.293
X151.4Y-103.678
X151.4Y-105.064
X151.4Y-106.45
X151.4Y-107.835
X151.4Y-109.221
X151.4Y-110.606
X151.4Y-111.992
X151.4Y-113.378
X151.4Y-114.763
X151.4Y-116.149
X151.4Y-117.534
X151.4Y-118.92
X151.8Y-84.973
X151.8Y-86.358
X151.8Y-87.744
X151.8Y-89.13
X151.8Y-90.515
X151.8Y-91.901
X151.8Y-93.286
X151.8Y-94.672
X151.8Y-96.058
X151.8Y-97.443
X151.8Y-98.829
X151.8Y-100.214
X151.8Y-101.6
X151.8Y-102.986
X151.8Y-104.371
X151.8Y-105.757
X151.8Y-107.142
X151.8Y-108.528
X151.8Y-109.914
X151.8Y-111.299
X151.8Y-112.685
X151.8Y-114.07
X151.8Y-115.456
X151.8Y-116.842
X151.8Y-118.227
X152.2Y-85.666
X152.2Y-87.051
X152.2Y-88.437
X152.2Y-89.822
X152.2Y-91.208
X152.2Y-92.594
X152.2Y-93.979
X152.2Y-95.365
X152.2Y-96.75
X152.2Y-98.136
X152.2Y-99.522
X152.2Y-100.907
X152.2Y-102.293
X152.2Y-103.678
X152.2Y-105.064
X152.2Y-106.45
X152.2Y-107.835
X152.2Y-109.221
X152.2Y-110.606
X152.2Y-111.992
X152.2Y-113.378
X152.2Y-114.763
X152.2Y-116.149
X152.2Y-117.534
X152.6Y-86.358
X152.6Y-87.744
X152.6Y-89.13
X152.6Y-90.515
X152.6Y-91.901
X152.6Y-93.286
X152.6Y-94.672
X152.6Y-96.058
X152.6Y-97.443
X152.6Y-98.829
X152.6Y-100.214
X152.6Y-101.6
X152.6Y-102.986
X152.6Y-104.371
X152.6Y-105.757
X152.6Y-107.142
X152.6Y-108.528
X152.6Y-109.914
X152.6Y-111.299
X152.6Y-112.685
X152.6Y-114.07
X152.6Y-115.456
X152.6Y-116.842
X153.0Y-87.051
X153.0Y-88.437
X153.0Y-89.822
X153.0Y-91.208
X153.0Y-92.594
X153.0Y-93.979
X153.0Y-95.365
X153.0Y-96.75
X153.0Y-98.136
X153.0Y-99.522
X153.0Y-100.907
X153.0Y-102.293
X153.0Y-103.678
X153.0Y-105.064
X153.0Y-106.45
X153.0Y-107.835
X153.0Y-109.221
X153.0Y-110.606
X153.0Y-111.992
X153.0Y-113.378
X153.0Y-114.763
X153.0Y-116.149
X153.4Y-87.744
X153.4Y-89.13
X153.4Y-90.515
X153.4Y-91.901
X153.4Y-93.286
X153.4Y-94.672
X153.4Y-96.058
X153.4Y-97.443
X153.4Y-98.829
X153.4Y-100.214
X153.4Y-101.6
X153.4Y-102.986
X153.4Y-104.371
X153.4Y-105.757
X153.4Y-107.142
X153.4Y-108.528
X153.4Y-109.914
X153.4Y-111.299
X153.4Y-112.685
X153.4Y-114.07
X153.4Y-115.456
X153.8Y-88.437
X153.8Y-89.822
X153.8Y-91.208
X153.8Y-92.594
X153.8Y-93.979
X153.8Y-95.365
X153.8Y-96.75
X153.8Y-98.136
X153.8Y-99.522
X153.8Y-100.907
X153.8Y-102.293
X153.8Y-103.678
X153.8Y-105.064
X153.8Y-106.45
X153.8Y-107.835
X153.8Y-109.221
X153.8Y-110.606
X153.8Y-111.992
X153.8Y-113.378
X153.8Y-114.763
X154.2Y-90.515
X154.2Y-91.901
X154.2Y-93.286
X154.2Y-94.672
X154.2Y-96.058
X154.2Y-97.443
X154.2Y-98.829
X154.2Y-100.214
X154.2Y-101.6
X154.2Y-102.986
X154.2Y-104.371
X154.2Y-105.757
X154.2Y-107.142
X154.2Y-108.528
X154.2Y-109.914
X154.2Y-111.299
X154.2Y-112.685
X154.6Y-91.208
X154.6Y-92.594
X154.6Y-93.979
X154.6Y-95.365
X154.6Y-96.75
X154.6Y-98.136
X154.6Y-99.522
X154.6Y-100.907
X154.6Y-102.293
X154.6Y-103.678
X154.6Y-105.064
X154.6Y-106.45
X154.6Y-107.835
X154.6Y-109.221
X154.6Y-110.606
X154.6Y-111.992
X155.0Y-91.901
X155.0Y-93.286
X155.0Y-94.672
X155.0Y-96.058
X155.0Y-97.443
X155.0Y-98.829
X155.0Y-100.214
X155.0Y-101.6
X155.0Y-102.986
X155.0Y-104.371
X155.0Y-105.757
X155.0Y-107.142
X155.0Y-108.528
X155.0Y-109.914
X155.0Y-111.299
X155.4Y-92.594
X155.4Y-93.979
X155.4Y-95.365
X155.4Y-96.75
X155.4Y-98.136
X155.4Y-99.522
X155.4Y-100.907
X155.4Y-102.293
X155.4Y-103.678
X155.4Y-105.064
X155.4Y-106.45
X155.4Y-107.835
X155.4Y-109.221
X155.4Y-110.606
X155.8Y-94.672
X155.8Y-96.058
X155.8Y-97.443
X155.8Y-98.829
X155.8Y-100.214
X155.8Y-101.6
X155.8Y-102.986
X155.8Y-104.371
X155.8Y-105.757
X155.8Y-107.142
X155.8Y-108.528
X156.2Y-95.365
X156.2Y-96.75
X156.2Y-98.136
X156.2Y-99.522
X156.2Y-100.907
X156.2Y-102.293
X156.2Y-103.678
X156.2Y-105.064
X156.2Y-106.45
X156.2Y-107.835
X156.6Y-97.443
X156.6Y-98.829
X156.6Y-100.214
X156.6Y-101.6
X156.6Y-102.986
X156.6Y-104.371
X156.6Y-105.757
T2
X109.5Y-71.289
X109.5Y-131.911
X162.0Y-101.6
T0
M30
