%TF.GenerationSoftware,KiCad,Pcbnew,(7.0.0)*%
%TF.CreationDate,2023-03-13T12:39:34-05:00*%
%TF.ProjectId,GEM.0.02.Clear,47454d2e-302e-4303-922e-436c6561722e,rev?*%
%TF.SameCoordinates,Original*%
%TF.FileFunction,Drillmap*%
%TF.FilePolarity,Positive*%
%FSLAX45Y45*%
G04 Gerber Fmt 4.5, Leading zero omitted, Abs format (unit mm)*
G04 Created by KiCad (PCBNEW (7.0.0)) date 2023-03-13 12:39:34*
%MOMM*%
%LPD*%
G01*
G04 APERTURE LIST*
%ADD10C,0.200000*%
G04 APERTURE END LIST*
D10*
X16700000Y-10160000D02*
G75*
G03*
X16700000Y-10160000I-4000000J0D01*
G01*
X8937619Y-14463476D02*
X8937619Y-14263476D01*
X8937619Y-14263476D02*
X8985238Y-14263476D01*
X8985238Y-14263476D02*
X9013810Y-14273000D01*
X9013810Y-14273000D02*
X9032857Y-14292048D01*
X9032857Y-14292048D02*
X9042381Y-14311095D01*
X9042381Y-14311095D02*
X9051905Y-14349190D01*
X9051905Y-14349190D02*
X9051905Y-14377762D01*
X9051905Y-14377762D02*
X9042381Y-14415857D01*
X9042381Y-14415857D02*
X9032857Y-14434905D01*
X9032857Y-14434905D02*
X9013810Y-14453952D01*
X9013810Y-14453952D02*
X8985238Y-14463476D01*
X8985238Y-14463476D02*
X8937619Y-14463476D01*
X9137619Y-14463476D02*
X9137619Y-14330143D01*
X9137619Y-14368238D02*
X9147143Y-14349190D01*
X9147143Y-14349190D02*
X9156667Y-14339667D01*
X9156667Y-14339667D02*
X9175714Y-14330143D01*
X9175714Y-14330143D02*
X9194762Y-14330143D01*
X9261429Y-14463476D02*
X9261429Y-14330143D01*
X9261429Y-14263476D02*
X9251905Y-14273000D01*
X9251905Y-14273000D02*
X9261429Y-14282524D01*
X9261429Y-14282524D02*
X9270952Y-14273000D01*
X9270952Y-14273000D02*
X9261429Y-14263476D01*
X9261429Y-14263476D02*
X9261429Y-14282524D01*
X9385238Y-14463476D02*
X9366190Y-14453952D01*
X9366190Y-14453952D02*
X9356667Y-14434905D01*
X9356667Y-14434905D02*
X9356667Y-14263476D01*
X9490000Y-14463476D02*
X9470952Y-14453952D01*
X9470952Y-14453952D02*
X9461429Y-14434905D01*
X9461429Y-14434905D02*
X9461429Y-14263476D01*
X9686190Y-14463476D02*
X9686190Y-14263476D01*
X9686190Y-14263476D02*
X9752857Y-14406333D01*
X9752857Y-14406333D02*
X9819524Y-14263476D01*
X9819524Y-14263476D02*
X9819524Y-14463476D01*
X10000476Y-14463476D02*
X10000476Y-14358714D01*
X10000476Y-14358714D02*
X9990952Y-14339667D01*
X9990952Y-14339667D02*
X9971905Y-14330143D01*
X9971905Y-14330143D02*
X9933809Y-14330143D01*
X9933809Y-14330143D02*
X9914762Y-14339667D01*
X10000476Y-14453952D02*
X9981429Y-14463476D01*
X9981429Y-14463476D02*
X9933809Y-14463476D01*
X9933809Y-14463476D02*
X9914762Y-14453952D01*
X9914762Y-14453952D02*
X9905238Y-14434905D01*
X9905238Y-14434905D02*
X9905238Y-14415857D01*
X9905238Y-14415857D02*
X9914762Y-14396809D01*
X9914762Y-14396809D02*
X9933809Y-14387286D01*
X9933809Y-14387286D02*
X9981429Y-14387286D01*
X9981429Y-14387286D02*
X10000476Y-14377762D01*
X10095714Y-14330143D02*
X10095714Y-14530143D01*
X10095714Y-14339667D02*
X10114762Y-14330143D01*
X10114762Y-14330143D02*
X10152857Y-14330143D01*
X10152857Y-14330143D02*
X10171905Y-14339667D01*
X10171905Y-14339667D02*
X10181429Y-14349190D01*
X10181429Y-14349190D02*
X10190952Y-14368238D01*
X10190952Y-14368238D02*
X10190952Y-14425381D01*
X10190952Y-14425381D02*
X10181429Y-14444428D01*
X10181429Y-14444428D02*
X10171905Y-14453952D01*
X10171905Y-14453952D02*
X10152857Y-14463476D01*
X10152857Y-14463476D02*
X10114762Y-14463476D01*
X10114762Y-14463476D02*
X10095714Y-14453952D01*
X10276667Y-14444428D02*
X10286190Y-14453952D01*
X10286190Y-14453952D02*
X10276667Y-14463476D01*
X10276667Y-14463476D02*
X10267143Y-14453952D01*
X10267143Y-14453952D02*
X10276667Y-14444428D01*
X10276667Y-14444428D02*
X10276667Y-14463476D01*
X10276667Y-14339667D02*
X10286190Y-14349190D01*
X10286190Y-14349190D02*
X10276667Y-14358714D01*
X10276667Y-14358714D02*
X10267143Y-14349190D01*
X10267143Y-14349190D02*
X10276667Y-14339667D01*
X10276667Y-14339667D02*
X10276667Y-14358714D01*
M02*
